<svg version="1.1" xmlns="http://www.w3.org/2000/svg" xmlns:xlink="http://www.w3.org/1999/xlink" width="34.50374" height="39.00265" viewBox="0,0,34.50374,39.00265"><g transform="translate(-220.8,-164.45)"><g data-paper-data="{&quot;isPaintingLayer&quot;:true}" fill="#5d5d5d" fill-rule="nonzero" stroke="none" stroke-width="0.5" stroke-linecap="butt" stroke-linejoin="miter" stroke-miterlimit="10" stroke-dasharray="" stroke-dashoffset="0" style="mix-blend-mode: normal"><path d="M243.43605,194.19706c0.03909,3.15598 -0.71562,6.09176 -3.30312,7.86796c-0.94693,0.65002 -2.22059,0.59105 -3.34264,0.83643c-0.99,0.21651 -1.97759,0.58609 -2.99029,0.54855c-8.79942,-0.32621 -12.26629,-14.41767 -7.44417,-20.57169c0.22832,-0.29138 0.47522,-0.56988 0.73862,-0.83616l-1.54141,-0.92484c-0.74893,-0.43183 -1.25305,-1.24069 -1.25305,-2.16731c0,-0.87677 0.45134,-1.64812 1.13436,-2.09439c-0.62458,-0.54788 -1.25864,-1.10191 -1.91971,-1.65561l-0.09201,-0.24812l-0.07481,0.05985l-1.98756,-2.48445c-0.35027,-0.43024 -0.56027,-0.97924 -0.56027,-1.57729c0,-1.38071 1.11929,-2.5 2.5,-2.5c0.41989,0 0.81561,0.10352 1.16302,0.28642l2.95502,1.47751l-0.01569,0.03137c0.07269,0.0259 0.14506,0.05296 0.21711,0.08125c0.02918,0.01146 2.94788,2.21994 5.28673,3.99136c0.32374,-0.37532 0.75716,-0.65337 1.25048,-0.78436c-0.01566,-1.03459 0.03325,-2.05099 0.14596,-3.08355h-0.50264v-3.5c0,-1.38071 1.11929,-2.5 2.5,-2.5c0.82831,0 1.56254,0.40283 2.01746,1.02328l1.48254,1.97672l-0.18391,0.13793l0.46617,0.34164c0.0559,0.26002 0.11626,0.51896 0.18063,0.7769c3.03233,-1.76369 6.59385,-1.83496 8.77317,2.12549c0.96855,1.76013 0.24387,4.87124 -0.80558,7.04173c1.64614,1.19707 2.7976,2.93594 2.78106,4.72402c1.63604,1.15483 4.40797,3.18583 4.28846,5.35229c-0.22859,4.14384 -4.93854,5.47994 -8.36838,5.13529l-1.63162,1.86471c0,0 -1.12328,0 -1.86395,-0.75294zM241.83925,173.48412c0.33774,0.87275 0.68918,1.74144 1.03473,2.61054c1.15975,-0.47493 2.02081,-1.17068 1.68995,-3.02663c-0.20633,-1.1574 -1.68353,-0.37276 -2.72469,0.41609zM248.03407,186.90831c-0.77721,0.35092 -1.67993,0.42089 -2.58281,0.45914c1.00646,0.3811 2.05071,0.6499 3.1024,0.59471c0.58133,-0.03051 2.30841,0.13935 1.74634,-0.01217c-0.80978,-0.21829 -1.55168,-0.59355 -2.26594,-1.04169zM238.05602,190.36132c-0.12977,-0.05759 -0.25472,-0.11591 -0.37406,-0.17525c-2.14974,-1.06906 -4.04444,-2.13399 -5.91683,-3.29353l-1.90705,-0.38141c-0.29598,0.46235 -0.51087,0.9655 -0.62496,1.51326c-0.36919,1.77247 0.44053,4.60837 0.93606,6.1275c0.33343,1.02219 1.05072,3.36729 2.31047,4.09393c0.98666,0.56913 2.44638,-0.09906 3.33006,-0.24727c2.33098,-0.39094 2.57476,-0.66445 2.49039,-3.57048c-0.03717,-1.28025 -0.11681,-2.65834 -0.24408,-4.06675z"/></g></g></svg>