<svg version="1.1" xmlns="http://www.w3.org/2000/svg" xmlns:xlink="http://www.w3.org/1999/xlink" width="28.52115" height="27.4178" viewBox="0,0,28.52115,27.4178"><g transform="translate(-225.73942,-166.2911)"><g data-paper-data="{&quot;isPaintingLayer&quot;:true}" fill-rule="nonzero" stroke="none" stroke-linecap="butt" stroke-linejoin="miter" stroke-miterlimit="10" stroke-dasharray="" stroke-dashoffset="0" style="mix-blend-mode: normal"><path d="M228.25175,171.92713c-0.00799,-0.05293 -0.00585,-0.09007 -0.00585,-0.09007c0.06138,-1.06773 -0.15816,-2.33213 0.21639,-3.35894c0.0613,-0.16804 0.21309,-0.28903 0.29655,-0.44723c0.21277,-0.40333 0.22969,-0.95076 0.85876,-1.03754c0.92501,-0.12761 0.8251,0.48022 1.27063,0.94274c0.17034,0.17683 0.40876,0.27253 0.60563,0.41925c0.48937,0.36473 1.0113,0.80627 1.67984,0.71025c0.21008,-0.03017 0.79346,-0.34869 0.89051,-0.39702c0.67131,-0.43366 1.14448,-1.22736 1.72369,-1.78882c0.29916,-0.28999 0.65188,-0.63468 1.13092,-0.58354c0.54684,0.05838 0.81035,0.60917 1.34655,0.6746c1.01697,0.12409 2.17451,0.3608 3.20117,0.27115c0.79855,-0.06973 1.59448,-0.23408 2.4047,-0.28792c0.61042,-0.04056 1.20175,-0.00246 1.80802,-0.06803c0.13928,0.00773 1.45511,0.07288 1.53452,0.11218c0.2952,0.14608 0.55159,0.39776 0.71137,0.68576c0.24091,0.43423 -0.14818,0.64777 -0.04464,1.05787c0.03105,0.12297 0.16014,0.19672 0.23881,0.29619c0.06615,0.08364 0.09773,0.21091 0.19566,0.2531c0.19432,0.08371 0.42801,0.02826 0.62665,0.10112c0.15611,0.05727 0.25828,0.21861 0.41276,0.28017c0.18595,0.07411 0.40333,0.0432 0.58864,0.11891c0.31444,0.12846 0.53891,0.42221 0.84492,0.56961c0.47245,0.22757 0.75003,0.12675 1.06558,0.61397c0.86132,1.3299 -0.24506,2.80794 0.2231,4.15055c0.66153,0.99451 1.74872,1.62036 2.08395,2.83915c0.48143,1.75032 -0.91712,3.21443 -1.19659,4.85135c-0.04014,0.23511 0.12993,0.459 0.19214,0.68927c0.05035,0.18639 -0.01141,0.3926 0.044,0.57755c0.04097,0.13674 0.1993,0.21937 0.23608,0.3573c0.10626,0.39852 0.07232,0.82204 0.12828,1.23067c-0.03286,0.59299 -0.03316,1.06982 -0.19,1.65861c-0.10407,0.39067 -0.50986,0.91658 -0.68564,1.22119c-0.75879,1.31488 -1.93246,2.49378 -3.22925,3.31208c-0.49031,0.30939 -1.11512,0.72707 -1.68278,0.89204c-0.9471,0.27523 -2.23321,-0.01712 -3.20522,-0.07301c-0.5793,-0.0333 -1.19545,-0.13925 -1.77216,-0.02819c-1.41056,0.27164 -2.67185,1.14733 -4.16796,1.04762c-1.41646,-0.0944 -2.12024,-1.38663 -3.21701,-2.0198c-0.3135,-0.18098 -0.49922,-0.15226 -0.83207,-0.26871c-0.70274,-0.24586 -1.36599,-0.58397 -2.03875,-0.899c-0.90822,-0.42528 -1.95022,-0.87482 -2.67239,-1.59379c-0.22754,-0.22653 -0.37015,-0.60407 -0.52823,-0.8745c-0.28925,-0.4948 -0.61499,-0.99748 -0.92089,-1.47826c-0.41363,-0.6501 -1.0821,-1.1178 -1.45043,-1.81932c-0.526,-1.0018 -0.69054,-2.18868 -0.80825,-3.29746c0.03986,-0.72224 0.10145,-1.42906 -0.03565,-2.14638c-0.21041,-1.10093 -0.51724,-2.17364 -0.33053,-3.31097c0.11489,-0.69987 0.49333,-1.18771 0.9529,-1.69837c0.56462,-0.62739 1.06771,-0.84994 1.1127,-1.71383l0.01462,-0.25436c0,0 0.02145,-0.37319 0.37425,-0.39916z" fill="#8b0000" stroke-width="0.5"/><path d="M236.38546,173.19857c0.00321,0.00184 0.00637,0.00369 0.00949,0.00556c0.00639,-0.00644 0.01018,-0.00982 0.01018,-0.00982c0.8453,-0.73791 1.19583,-1.89743 2.01247,-2.67798c0.37683,-0.36017 0.86906,-0.59281 1.35587,-0.77919c0.22191,-0.08496 0.4289,-0.30558 0.66263,-0.26278c0.27635,0.0506 0.48191,0.30143 0.67305,0.50732c0.64625,0.69611 0.82041,1.55145 1.13546,2.39839c0.08275,0.22246 0.23673,0.41467 0.31406,0.63908c0.04431,0.12858 -0.0905,0.46987 0.03004,0.4069c0.15661,-0.08181 0.27627,-0.2327 0.44307,-0.29097c0.14236,-0.04973 1.18475,-0.11286 1.28448,-0.11996c0.24354,0.08348 0.50173,0.13258 0.73062,0.25043c1.15039,0.59232 2.40683,2.34564 1.69338,3.65102c-0.11271,0.20622 -0.34835,0.31599 -0.5123,0.48435c-0.51848,0.53247 -1.04086,0.87762 -1.76521,1.10709c-0.01954,0.00619 0.04201,-0.00769 0.06149,-0.0013c0.17987,0.05898 0.36053,0.11799 0.53291,0.19621c0.2539,0.11521 0.49237,0.26209 0.74359,0.38302c0.61514,0.29613 1.55832,0.62221 1.84421,1.33027c0.14539,0.3601 0.07474,0.9099 0.04789,1.29423c-0.2918,0.64265 -0.66127,1.28362 -1.12525,1.82104c-0.27658,0.32036 -0.88113,0.57165 -0.90415,1.05612c-0.0261,0.54924 0.31793,0.70318 0.55065,1.15733c0.25007,0.48803 0.54967,0.95823 0.71823,1.48005c0.07362,0.22791 0.06055,0.47586 0.0687,0.71522c0.01036,0.30405 -0.07493,1.01251 -0.1996,1.22972c-0.13899,0.24215 -0.67426,0.62415 -0.95073,0.78647c-1.06218,0.62361 -2.19944,0.88034 -3.41443,0.98307c-0.91629,-0.05086 -1.79367,-0.04959 -2.67629,-0.33836c-2.05769,-0.67322 -3.35803,-2.26479 -4.94597,-3.58008c-0.37929,-0.31416 -0.73486,-0.32382 -1.15282,-0.52673c-0.62732,-0.30455 -0.99854,-0.89446 -1.39611,-1.43513c-0.29249,-0.67712 -0.69127,-1.67505 -0.41808,-2.43299c0.04309,-0.11956 0.69947,-0.8501 0.77124,-0.90704c0.23555,-0.18686 0.6012,-0.15834 0.82978,-0.35367c0.0396,-0.03384 -0.09282,-0.05223 -0.12613,-0.09228c-0.11218,-0.13488 -0.22261,-0.27378 -0.30646,-0.42787c-0.26156,-0.48068 -0.31662,-0.69948 -0.33493,-1.23423c-0.02277,-0.66493 -0.03747,-1.69829 0.14424,-2.33629c0.13159,-0.462 0.51735,-0.89893 0.67646,-1.33802c0.0506,-0.13965 -0.02898,-0.309 0.03195,-0.44447c0.08466,-0.18824 0.2572,-0.3229 0.3858,-0.48435c0.70475,-0.45698 1.53048,-0.42057 1.74965,-1.38343l0.13718,-0.26905c0,0 0.21139,-0.36828 0.57967,-0.15689zM236.47674,173.88583c-0.20738,0.69392 -0.64795,1.28893 -1.36252,1.54804c-0.20797,0.07541 -0.44877,0.0815 -0.63019,0.20808c-0.13917,0.14157 -0.11063,0.38164 -0.17872,0.56812c-0.15848,0.43407 -0.53112,0.85782 -0.66656,1.30696c-0.09687,0.32124 -0.02717,0.67053 -0.04643,1.0055c-0.0262,0.45571 -0.14328,1.03026 -0.02107,1.48355c0.13108,0.48617 0.91029,1.09671 0.67204,1.65742c-0.25529,0.6008 -1.3577,0.60374 -1.60733,1.27703c-0.17502,0.47205 0.18912,1.28313 0.3654,1.69533c0.27356,0.36639 0.56865,0.88862 1.01104,1.08517c0.48035,0.2134 0.89912,0.28565 1.33233,0.63696c1.52847,1.2395 2.72771,2.7888 4.68856,3.43901c0.78391,0.25994 1.57587,0.24455 2.3915,0.29326c0.5287,-0.04485 1.08211,-0.11732 1.59587,-0.25482c0.25044,-0.06703 0.49995,-0.14306 0.73763,-0.24661c0.24314,-0.10593 1.1331,-0.53945 1.30657,-0.84168c0.0474,-0.08258 0.08859,-0.67785 0.08696,-0.79545c-0.01785,-1.28802 -1.41474,-2.15079 -1.33458,-3.43634c0.04859,-0.77933 0.66844,-1.0322 1.11717,-1.54986c0.36735,-0.42378 0.68753,-0.95987 0.93507,-1.46325c0.00523,-0.14338 0.03134,-0.64862 -0.0047,-0.75044c-0.03322,-0.09386 -0.13413,-0.14852 -0.21257,-0.20985c-0.59622,-0.46615 -1.28867,-0.73448 -1.96135,-1.0728c-0.46743,-0.23509 -1.32383,-0.39694 -1.02337,-1.25919c0.18102,-0.5195 1.30962,-0.74407 1.69978,-1.0977c0.21918,-0.19866 0.48022,-0.36728 0.63643,-0.61848c0.21472,-0.34529 0.06483,-0.88359 -0.14353,-1.17384c-0.48419,-0.6745 -0.83471,-1.16923 -1.65031,-1.46224c-0.31302,0.0323 -0.6377,0.00338 -0.93951,0.09246c-0.2703,0.07978 -0.50313,0.35258 -0.78296,0.31909c-0.26824,-0.0321 -0.48468,-0.273 -0.64551,-0.49006c-0.10262,-0.13848 -0.03647,-0.34604 -0.09433,-0.5084c-0.2442,-0.68526 -0.49743,-1.45663 -0.85898,-2.09382c-0.12615,-0.22233 -0.28301,-0.42577 -0.42215,-0.64021c-0.04687,-0.07223 -0.0499,-0.2142 -0.13583,-0.21973c-0.09692,-0.00623 -0.12791,0.15321 -0.2145,0.1972c-0.18167,0.0923 -0.39771,0.106 -0.57611,0.20448c-1.18777,0.65568 -1.59409,2.22554 -2.56976,3.10959c0,0 -0.24323,0.21678 -0.49347,0.05752z" fill="#5d5d5d" stroke-width="0.5"/><path d="M237.11157,173.58762c0.23333,0.18314 0.49726,-0.00884 0.49726,-0.00884c1.058,-0.78365 1.62028,-2.30629 2.86686,-2.8418c0.18723,-0.08043 0.40408,-0.07273 0.59396,-0.14669c0.0905,-0.03525 0.13722,-0.19084 0.23306,-0.17509c0.08497,0.01396 0.07413,0.15556 0.11366,0.23206c0.11734,0.2271 0.25383,0.44509 0.35747,0.67876c0.29703,0.6697 0.47431,1.46264 0.64983,2.16862c0.04158,0.16727 -0.04441,0.36741 0.04407,0.51532c0.13868,0.23184 0.33124,0.49334 0.59501,0.5517c0.27517,0.06089 0.53433,-0.18728 0.81118,-0.24005c0.30912,-0.05892 0.63005,0.00237 0.94473,0.00106c0.78278,0.37192 1.08448,0.90061 1.49988,1.61952c0.17876,0.30937 0.27548,0.86086 0.02779,1.18332c-0.1802,0.2346 -0.45645,0.37694 -0.69414,0.55305c-0.42309,0.31348 -1.5682,0.42607 -1.79952,0.92521c-0.38392,0.82846 0.45293,1.07662 0.89493,1.3566c0.63609,0.40293 1.29864,0.73982 1.84605,1.26242c0.07202,0.06875 0.16701,0.13332 0.19082,0.23c0.02583,0.10487 -0.05013,0.60594 -0.06945,0.74811c-0.29592,0.47655 -0.66818,0.98038 -1.07548,1.36592c-0.49753,0.47095 -1.1408,0.66342 -1.26592,1.43418c-0.20639,1.27141 1.0976,2.26845 0.98849,3.55197c-0.00996,0.11719 -0.10997,0.70574 -0.16528,0.78325c-0.2024,0.28367 -1.13184,0.62798 -1.38424,0.70944c-0.24672,0.07963 -0.50309,0.13093 -0.75891,0.17296c-0.5248,0.08622 -1.08392,0.10413 -1.61447,0.09669c-0.80687,-0.12882 -1.59847,-0.19143 -2.35296,-0.52732c-1.88727,-0.84018 -2.93303,-2.50218 -4.33198,-3.8862c-0.3965,-0.39227 -0.80717,-0.50653 -1.26416,-0.76621c-0.42088,-0.23916 -0.66394,-0.78921 -0.90008,-1.18077c-0.13483,-0.42757 -0.41796,-1.27222 -0.19729,-1.72473c0.31473,-0.64543 1.41188,-0.54063 1.72511,-1.11336c0.29233,-0.53452 -0.42303,-1.22127 -0.50558,-1.71798c-0.07697,-0.46313 0.09659,-1.02526 0.16755,-1.47617c0.05216,-0.33144 0.01771,-0.68704 0.14575,-0.99717c0.17901,-0.43362 0.59263,-0.82011 0.79309,-1.23646c0.08612,-0.17887 0.08184,-0.42108 0.23428,-0.54825c0.19301,-0.10809 0.43377,-0.09092 0.64816,-0.14548c0.73662,-0.18747 1.23578,-0.73748 1.51051,-1.4076z" data-paper-data="{&quot;noHover&quot;:false,&quot;origItem&quot;:[&quot;Path&quot;,{&quot;applyMatrix&quot;:true,&quot;segments&quot;:[[[218.00638,144.51287],[0,0],[-0.98443,4.14869]],[[210.52107,154.07209],[4.11244,-1.76441],[-1.19688,0.51351]],[[206.88735,155.50805],[1.02358,-0.80528],[-0.77017,0.87911]],[[206.02887,158.90762],[0.33717,-1.11907],[-0.78484,2.60487]],[[202.55271,166.81467],[0.64427,-2.68564],[-0.4608,1.92083]],[[202.61959,172.74029],[0,-1.97533],[0,2.68736]],[[202.99705,181.46718],[-0.8715,-2.623],[0.93471,2.81323]],[[207.50709,190.98182],[1.21092,-3.37619],[-1.29748,3.61753]],[[198.4913,199.03086],[1.23974,-4.04169],[-0.86919,2.83367]],[[201.21185,208.87192],[-1.17542,-2.36323],[1.73166,2.06107]],[[207.52108,214.90849],[-2.66663,-1.00572],[2.89542,1.092]],[[215.56725,218.20209],[-2.66494,-1.91846],[9.40261,6.76884]],[[244.28693,236.83101],[-11.74484,-3.15909],[4.69536,1.26295]],[[258.44237,237.74659],[-4.81044,-0.01072],[3.09237,-0.44224]],[[267.7362,235.7096],[-2.97321,0.98174],[1.44934,-0.47857]],[[271.98837,234.01088],[-1.36199,0.68891],[1.39332,-0.70476]],[[279.38352,228.62227],[-0.9175,1.83501],[0.2507,-0.5014]],[[279.62588,223.91753],[0.04931,0.69066],[-0.54012,-7.56446]],[[270.62055,204.17094],[-0.03673,7.58309],[0.02227,-4.59705]],[[276.66314,194.68393],[-2.46252,3.19427],[2.01593,-2.61497]],[[281.6647,185.76754],[-1.28488,3.04232],[-0.01772,-0.84453]],[[281.38352,181.35834],[0.24623,0.58628],[-0.22698,-0.54045]],[[280.06321,180.19675],[0.48176,0.33395],[-3.66188,-2.53839]],[[268.17259,174.554],[4.06811,1.76118],[-2.82682,-1.2238]],[[261.73209,167.49877],[-1.47459,5.16947],[0.88845,-3.11463]],[[271.35182,160.47253],[-2.17369,2.21035],[1.22113,-1.24173]],[[274.88352,156.62226],[-0.83328,1.52928],[1.14538,-2.10206]],[[273.64326,149.77135],[1.32275,1.63561],[-3.07382,-3.80087]],[[263.44922,141.73448],[4.89283,1.44661],[-1.82891,0.29563]],[[257.95837,142.59538],[1.74384,-0.62555],[-1.56177,0.56025]],[[253.46425,144.73546],[1.65606,0.10229],[-1.58745,-0.09805]],[[249.50458,142.07322],[1.01868,1.22143],[-0.64993,-0.77928]],[[248.77834,139.11693],[0.39492,0.93472],[-1.66686,-3.94517]],[[243.02203,127.10051],[2.34038,3.62297],[-0.8166,-1.26412]],[[240.32444,123.48023],[0.89027,1.21336],[-0.29989,-0.40872]],[[239.45183,122.23465],[0.50693,0.00345],[-0.57178,-0.00388]],[[238.25774,123.46619],[0.49407,-0.28783],[-1.0366,0.60389]],[[234.9407,124.86271],[1.01527,-0.6391],[-6.75973,4.25522]],[[220.88737,144.00805],[5.43591,-5.52581],[0,0]],[[218.0064,144.51287],[1.52462,0.85153],[0,0]]],&quot;closed&quot;:true,&quot;fillColor&quot;:[0,0,0,1],&quot;strokeWidth&quot;:0.5}]}" fill="#fff700" stroke-width="0.25"/></g></g></svg>