<svg version="1.1" xmlns="http://www.w3.org/2000/svg" xmlns:xlink="http://www.w3.org/1999/xlink" width="28.05625" height="11.77287" viewBox="0,0,28.05625,11.77287"><g transform="translate(-227.46375,-172.56376)"><g data-paper-data="{&quot;isPaintingLayer&quot;:true}" fill="#103c19" fill-rule="nonzero" stroke="none" stroke-width="0.5" stroke-linecap="butt" stroke-linejoin="miter" stroke-miterlimit="10" stroke-dasharray="" stroke-dashoffset="0" style="mix-blend-mode: normal"><path d="M231.93974,179.64901c-0.00809,0.01104 -0.01603,0.02208 -0.02381,0.03311zM232.45138,179.11337c-0.06021,0.58634 -0.41359,2.30701 -2.48763,2.30701c-2.5,0 -2.5,-2.5 -2.5,-2.5l0.54783,-2.36174c0.7154,-0.83515 1.22077,-1.91141 2.14619,-2.50544c3.80716,-2.44382 10.78162,-1.84809 13.79275,1.54969c0.87502,0.98738 0.34367,3.02218 1.49621,3.66423c1.42209,0.79221 5.15886,-3.78741 5.84462,-4.40498c0,0 1.85824,-1.67241 3.53065,0.18582c1.67241,1.85824 -0.18582,3.53065 -0.18582,3.53065c-2.97211,2.67313 -6.60196,7.38257 -11.35538,5.19502c-1.84914,-0.85098 -2.20331,-3.42335 -3.30379,-5.13577c-1.429,-2.22361 -5.72928,-1.05178 -7.5256,0.47551z"/></g></g></svg>