<svg version="1.1" xmlns="http://www.w3.org/2000/svg" xmlns:xlink="http://www.w3.org/1999/xlink" width="40.5" height="38.16667" viewBox="0,0,40.5,38.16667"><g transform="translate(-219.75,-160.91666)"><g data-paper-data="{&quot;isPaintingLayer&quot;:true}" fill-rule="nonzero" stroke-linecap="butt" stroke-linejoin="miter" stroke-miterlimit="10" stroke-dasharray="" stroke-dashoffset="0" style="mix-blend-mode: normal"><path d="M221,197.83333v-35.66667h38v35.66667z" fill="#6e4a2e" stroke="#8a5d3a" stroke-width="2.5"/><path d="M245.20193,167.16733l1.71958,0.91781c-0.6025,0.86294 -0.92883,1.6862 -1.27503,2.61849c0.55506,0.31453 1.1261,0.69462 1.72159,1.14009c1.833,1.37123 3.30682,1.82345 4.15854,4.11357c0,0 0.40022,1.1842 -0.78398,1.58442c-1.1842,0.40022 -1.58442,-0.78398 -1.58442,-0.78398c-0.4517,-1.60873 -1.99718,-1.95112 -3.28266,-2.90843c-0.45844,-0.3414 -0.88497,-0.63408 -1.28999,-0.87778c-1.28751,2.46886 -2.7116,4.85874 -4.04406,7.30133c1.71013,0.19528 3.43557,0.93583 4.16735,2.59006c2.60387,5.88619 -4.08433,11.4256 -9.33012,9.11851c-0.23321,0.38572 -0.48666,0.75738 -0.7655,1.11122c0,0 -0.78419,0.97342 -1.75761,0.18922c-0.97342,-0.78419 -0.18922,-1.75761 -0.18922,-1.75761c0.20929,-0.25213 0.40312,-0.51889 0.58395,-0.79773c-1.10895,-0.7423 -2.16681,-1.57011 -3.20457,-2.40498l-0.87878,-0.84296c0,0 -0.89842,-0.8691 -0.02932,-1.76752c0.8691,-0.89842 1.76752,-0.02932 1.76752,-0.02932l0.70896,0.69297c0.89968,0.72588 1.8172,1.44884 2.77418,2.10547c0.71843,-1.7623 1.23095,-3.69802 1.93771,-5.3951c-2.53425,-0.11371 -4.06605,-1.77828 -4.66421,-4.11609c-0.41012,-3.43908 2.20228,-5.76407 4.93081,-7.51851c2.5563,-1.6437 4.61879,-2.20461 6.74409,-1.69398c0.25435,-0.66962 0.50745,-1.28932 0.82293,-1.90263c-0.02978,-0.58172 0.44563,-1.00503 0.44563,-1.00503l0.10163,0.05424c0.04955,-0.0772 0.10058,-0.15464 0.15321,-0.23242zM238.93491,183.37388c-0.97411,2.01053 -1.58395,4.30503 -2.46689,6.41806c3.34456,1.6774 7.21055,-2.34164 5.93557,-5.96161c-0.4014,-1.13967 -1.77682,-1.23673 -3.15144,-1.10067c-0.10703,0.214 -0.21282,0.42872 -0.31724,0.64423zM237.9436,173.55405c-1.56332,1.00275 -4.34152,2.87531 -3.82623,4.9456c0.33491,2.13927 1.91198,2.0767 3.53116,1.88418c1.47413,-2.79669 3.11578,-5.49679 4.58454,-8.29605c-1.27427,-0.13372 -2.55112,0.35125 -4.28946,1.46627z" fill="#005b0e" stroke="none" stroke-width="0.5"/></g></g></svg>