<svg version="1.1" xmlns="http://www.w3.org/2000/svg" xmlns:xlink="http://www.w3.org/1999/xlink" width="79.68229" height="64.84889" viewBox="0,0,79.68229,64.84889"><g transform="translate(-202.24296,-145.22984)"><g data-paper-data="{&quot;isPaintingLayer&quot;:true}" fill="#032500" fill-rule="nonzero" stroke="none" stroke-width="0.25" stroke-linecap="butt" stroke-linejoin="miter" stroke-miterlimit="10" stroke-dasharray="" stroke-dashoffset="0" style="mix-blend-mode: normal"><path d="M277.73936,186.30009l-0.74993,0.87492l-0.09857,0.00548l-0.04898,0.08571l-0.53595,0.13399l-0.16427,0.16427l-0.00551,0.02754l-0.06058,0.03855l-0.04926,0.04926l-0.49257,0.29554l-0.04335,0.02759l-0.4599,0.3942l-0.47854,0.43504l-0.01061,-0.00073l-0.01503,0.01503l-0.34461,0.20676l-0.30513,0.26154l-0.33333,0.16667l-0.11946,0.02655l-0.00233,0.0014l-0.00178,-0.00049l-0.12526,0.02784l-0.09595,0.06106l-0.20905,0.24389l-0.19087,0.0106l-0.4161,0.26479l-0.19012,0.06337l-0.33269,0.33269l-0.42292,0.25375l-0.09485,0.16598l-0.31164,0.07791l-0.27545,0.16527l-0.07551,-0.02059l-0.4635,0.29496l-0.06609,0.02203l-0.06157,0.03694l-0.02709,-0.00739l-0.04603,0.01534l-0.01323,0.04705l-0.19895,0.1061l-0.14674,0.17119l-0.19451,0.01081l-0.59669,0.31824l-0.17689,0.04422l-0.01905,0.01429l-0.00051,0.00182l-0.00663,0.00353l-0.2366,0.17745l-0.45656,0.19224l-0.4371,0.23312l-0.28692,0.07173l-0.00692,0.00291l-0.00173,-0.00075l-0.01019,0.00255l-0.51434,0.3086l-0.3146,0.09575l-0.28484,0.16433l-0.84981,0.2428l-0.55076,0.33045l-0.09378,0.02854l-0.07443,0.06379l-1,0.5l-0.17566,0.03903l-0.15181,0.09661l-0.83145,0.27715l-0.6042,0.3021l-0.62652,0.50122l-0.15496,0.07102l-0.12054,0.12054l-0.83333,0.5l-0.26339,0.08016l-0.12249,0.07795l-0.13259,0.13259l-0.01218,0.00731l-0.01236,0.04394l-0.54787,0.2922l-0.53244,0.31946l-0.04404,-0.01201l-0.01254,0.00669l-0.17689,0.04422l-0.12065,0.09049l-0.2077,0.2077l-0.34461,0.20676l-0.30513,0.26154l-0.79837,0.39919l-0.48633,0.36475l-0.20943,0.08818l-0.17253,0.14789l-0.46504,0.23252l-0.14374,0.10781l-0.09579,0.14369l-0.3632,0.33018l-0.33018,0.3632l-1,0.66667l-0.14877,0.05313l-0.11994,0.10281l-0.05739,0.0287l-0.01637,0.08186l-0.27101,0.17246l-0.20905,0.24389l-0.19087,0.0106l-0.4161,0.26479l-0.11512,0.03837l-0.09837,0.07378l-0.00051,0.00182l-0.00663,0.00353l-0.2366,0.17745l-0.45656,0.19224l-0.28068,0.1497l-0.45795,0.41632l-0.05481,0.09592l-0.06993,0.01748l-0.05334,0.04849l-0.11021,-0.0076l-0.08026,0.02006l-0.1685,0.1685l-0.27312,0.16387l-0.08118,0.12178l-0.77532,0.70483l-0.05481,0.09592l-0.06993,0.01748l-0.05334,0.04849l-0.05558,-0.00383l-0.01198,0.02246l-0.01491,0.07453l-0.03761,0.02393l-0.02098,0.03933l-0.07317,0.02058l-0.95528,0.6079l-0.11512,0.03837l-0.04054,0.0304l-0.14981,0.16479l-0.42089,0.49104l-0.03826,0.00213l-0.26656,0.1777l-0.54295,0.54295l-0.00551,0.02754l-0.06058,0.03855l-0.04926,0.04926l-0.49257,0.29554l-0.48463,0.3084l-0.06609,0.02203l-0.00357,0.00214l-0.1675,0.18425l-1,0.66667l-0.09473,0.03383l-0.04202,0.07354l-0.54632,0.13658l-0.53033,0.1894l-0.07576,-0.03788l-0.09758,0.0244h-0.14913l-0.0603,0.03837l-0.33145,0.11048l-0.50775,0.25388l-0.26876,0.05973l-0.24293,0.12956l-0.66667,0.16667h-0.06096l-0.05509,0.0261l-0.775,0.155l-0.60895,0.15224h-0.30776l-0.29857,0.07464h-3l-0.29857,-0.07464h-0.30776l-0.66667,-0.16667l-0.15174,-0.08093l-0.1704,-0.02324l-0.38631,-0.15453h-0.35188l-0.20271,-0.05068l-0.20829,0.01666l-0.79591,-0.13265h-0.62643l-0.01378,-0.00345l-0.03981,0.02233l-0.59402,-0.18079l-0.60238,-0.1506l-0.02265,-0.03963l-0.01359,-0.00414l-0.23955,-0.14373h-0.30754l-0.45934,-0.11484l-0.46914,-0.06397l-1.21965,-0.48786h-0.51854l-0.45934,-0.11484l-0.46914,-0.06397l-1.66667,-0.66667l-0.086,-0.06211l-0.10356,-0.02301l-1.33333,-0.66667l-0.11994,-0.10281l-0.14877,-0.05313l-0.63969,-0.42646l-0.24656,-0.06164l-0.34497,-0.18398l-0.17542,0.0121l-0.28119,-0.25562l-0.3353,-0.17883l-0.04761,-0.16927l-0.20389,-0.18535l-0.12331,-0.06166l-0.17253,-0.14789l-0.20943,-0.08818l-0.66667,-0.5l-0.11347,-0.13965l-0.1543,-0.09258l-0.5,-0.5l-0.09258,-0.1543l-0.13965,-0.11347l-0.3934,-0.52453l-0.54104,-0.54104l-0.20676,-0.34461l-0.26154,-0.30513l-0.23252,-0.46504l-0.10781,-0.14374l-0.14369,-0.09579l-0.33018,-0.3632l-0.3632,-0.33018l-0.66667,-1l-0.05313,-0.14877l-0.10281,-0.11994l-0.0287,-0.05739l-0.08186,-0.01637l-0.17246,-0.27101l-0.24389,-0.20905l-0.00571,-0.10282l-0.0799,-0.05084l-0.1647,-0.03294l-0.07686,-0.12078l-0.12078,-0.07686l-0.03294,-0.1647l-0.46117,-0.72469l-0.06337,-0.19012l-0.16602,-0.16602l-0.15834,-0.26391l-0.21762,-0.21762l-0.46939,-0.78232l-1.63367,-2.4505l-0.0205,-0.05741l-0.0431,-0.0431l-0.5,-0.83333l-0.02854,-0.09378l-0.06379,-0.07443l-0.56585,-1.13171l-0.36475,-0.48633l-0.01159,-0.02753l-0.02274,-0.01937l-0.81644,-1.14301l-0.48256,-0.64341l-0.17651,-0.41921l-0.2273,-0.39399l-0.19853,-0.69485l-0.11775,-0.0785l-0.38132,-0.41945l-0.18417,-0.06806l-0.1121,-0.25784l-0.18913,-0.20804l0.01351,-0.19588l-0.22602,-0.51986l-0.01226,-0.07356l-0.12294,-0.1932l-0.31895,-0.35084l0.00936,-0.13566l-0.12759,-0.20051l-0.16667,-0.5l-0.00752,-0.09774l-0.04613,-0.08649l-0.10011,-0.40043l-0.2106,-0.42121l-0.03903,-0.17566l-0.09661,-0.15181l-0.03837,-0.11512l-0.25658,-0.34211l-0.07921,-0.18812l-0.10829,-0.06188l-0.12019,-0.48077l-0.19231,-0.45673l0.0495,-0.11448l-0.0495,-0.19802v-0.3589l-0.09202,-0.36809v-0.30776l-0.07464,-0.29857v-0.31966l-0.02735,-0.12306l-0.13932,-0.55728v-0.06966l-0.01558,-0.07009l0.01558,-0.02336v-3.5071l-0.01558,-0.02336l0.01558,-0.07009v-0.06966l0.13932,-0.55728l0.12461,-0.56075l0.03115,-0.06231l0.01742,-0.06966l0.02083,-0.0119v-1.90476l0.07464,-0.29857v-0.30776l0.09202,-0.36809v-0.3589l0.0495,-0.19802l-0.0495,-0.11448l0.19231,-0.45673l0.12019,-0.48077l0.10829,-0.06188l0.07921,-0.18812v-0.16667l0.09747,-0.38988l0.03082,-0.40069l0.33333,-1l0.09661,-0.15181l0.03903,-0.17566l0.18361,-0.36722l0.10101,-0.50504l0.0261,-0.05509v-0.06096l0.16667,-0.66667l0.08093,-0.15174l0.02324,-0.1704l0.27032,-0.6758l0.05162,-0.20649l-0.00075,-0.00173l0.00291,-0.00692l0.07173,-0.28692l0.23312,-0.4371l0.19224,-0.45656l0.0625,-0.08333l0.07682,-0.30728l0.12461,-0.56075l0.03115,-0.06231l0.01742,-0.06966l0.02438,-0.01393l0.26038,-0.52077l0.10281,-0.11994l0.05313,-0.14877l0.09313,-0.13969l0.06164,-0.24656l0.23312,-0.4371l0.1876,-0.44554l-0.00885,-0.01769l0.1894,-0.53033l0.13658,-0.54632l0.07354,-0.04202l0.03383,-0.09473l0.33333,-0.5l0.18425,-0.1675l0.00214,-0.00357l0.13711,-0.41134l-0.00739,-0.02709l0.03694,-0.06157l0.02203,-0.06609l0.3084,-0.48463l0.29554,-0.49257l0.01503,-0.01503l-0.00073,-0.01061l0.06642,-0.07307l0.00709,-0.01113l0.00371,-0.00074l0.35782,-0.3936l0.42089,-0.49104l0.03826,-0.00213l0.12638,-0.08425l0.08114,-0.08925l0.3942,-0.4599l0.02759,-0.04335l0.29554,-0.49257l0.04926,-0.04926l0.03855,-0.06058l0.02754,-0.00551l1.71799,-1.71799l0.12071,-0.07243l0.08532,-0.11198l0.83333,-0.66667l0.10057,-0.04609l0.07442,-0.08186l0.29403,-0.19602l0.70961,-0.70961l0.00551,-0.02754l0.06058,-0.03855l0.04926,-0.04926l0.49257,-0.29554l0.37484,-0.23853l0.46592,-0.46592l0.21352,-0.12811l0.1675,-0.18425l0.5,-0.33333l0.31447,-0.11231l0.28172,-0.17927l0.19109,-0.0637l0.34299,-0.20579l0.30513,-0.26154l1.8541,-0.92705l0.01393,-0.02438l0.06966,-0.01742l0.06231,-0.03115l0.56075,-0.12461l0.25173,-0.06293l0.05556,-0.09722l0.31164,-0.07791l0.27545,-0.16527l0.18443,0.0503l0.47848,-0.11962h11.83688l0.02336,-0.01558l0.07009,0.01558h0.06966l0.55728,0.13932l0.56075,0.12461l0.06231,0.03115l0.06966,0.01742l0.01393,0.02438l0.52077,0.26038l0.30017,0.25728l0.49847,0.12462l0.04202,0.07354l0.09473,0.03383l0.3705,0.247l0.36854,0.18427l0.33145,0.11048l1.08703,0.69175l0.0571,0.2855l0.2528,0.14446l0.04924,0.19695l0.1977,0.11862l0.15829,0.15829l0.79403,0.52935l0.1675,0.18425l0.21352,0.12811l2.04104,2.04104l0.46902,0.35176l0.44226,0.29484l0.1675,0.18425l0.21352,0.12811l0.15829,0.15829l0.76656,0.51104l0.03826,0.00213l0.37898,0.44215l0.34738,0.11579l0.72469,0.46117l0.1647,0.03294l0.07686,0.12078l0.04996,0.03179l0.04022,0.02011l0.06966,0.01742l0.01393,0.02438l0.52077,0.26038l0.43742,0.37493l0.02788,0.00697l0.01393,0.02438l0.22593,0.11297l0.17305,-0.04719l0.27545,0.16527l0.31164,0.07791l0.09485,0.16598l0.21297,0.12778l0.56609,0.1887l0.23228,0.14781l0.26339,0.08016l0.59801,0.35881l0.23965,0.07988l0.4161,0.26479l0.19087,0.0106l0.17501,0.20418l0.53379,0.13345l0.5802,0.30944l0.02612,0.00933l0.18488,0.01027l0.06888,0.08036l0.07059,0.02521l0.54632,0.13658l0.04202,0.07354l0.09473,0.03383l0.3705,0.247l1.19412,0.59706l0.11994,0.10281l0.14877,0.05313l0.28341,0.18894l0.59165,0.23666l0.26746,0.19316l0.30406,0.12803l0.26278,0.19709l0.17689,0.04422l0.3775,0.20133l0.40291,0.1439l0.5,0.33333l0.1675,0.18425l0.21352,0.12811l0.34836,0.34836l0.01061,-0.00073l0.47854,0.43504l0.49104,0.42089l0.00213,0.03826l0.1777,0.26656l0.67175,0.67175l0.58847,0.31385l0.19451,0.01081l0.14674,0.17119l0.19895,0.1061l0.05274,0.18753l0.4401,0.51345l0.23252,0.46504l0.25814,0.34419l0.16133,0.16133l0.20177,0.17295l0.34461,0.20676l0.13259,0.13259l0.6149,0.3913l0.1647,0.03294l0.07686,0.12078l0.12078,0.07686l0.03294,0.1647l0.0644,0.1012l0.19172,0.08073l0.66667,0.5l0.11347,0.13965l0.1543,0.09258l0.15829,0.15829l0.79403,0.52935l0.1675,0.18425l0.21352,0.12811l0.33333,0.33333l0.09258,0.1543l0.13965,0.11347l0.06393,0.08524l0.0541,0.01202l0.33333,0.16667l0.30513,0.26154l0.34461,0.20676l0.49162,0.49162l0.01546,0.01031l0.18239,0.0608l0.20051,0.12759l0.13566,-0.00936l0.35084,0.31895l0.40002,0.25456l0.02667,0.13334l0.09045,0.08223l0.12331,0.06166l0.30513,0.26154l0.25606,0.15364l1.24925,0.4997l0.212,0.15311l0.24627,0.08795l0.8705,0.58033l0.19412,0.09706l0.30513,0.26154l0.34461,0.20676l0.13259,0.13259l0.6149,0.3913l0.1647,0.03294l0.07686,0.12078l0.12078,0.07686l0.03294,0.1647l0.05276,0.08291l0.18094,0.16449l0.40002,0.25456l0.02667,0.13334l0.0768,0.06982l0.01893,-0.00237l0.05573,0.04528l0.06231,0.03115l0.43614,0.37384l0.44582,0.36223l0.0418,0.05573l0.05452,0.04673l0.00156,0.02804l0.14519,0.19359l0.01419,0.00946l0.16459,0.0823l0.03823,-0.00264l0.47854,0.43504l0.21276,0.18236l0.3,0.06667l0.06231,0.03115l0.06966,0.01742l0.01393,0.02438l0.18744,0.09372l0.97828,0.83853l0.00548,0.09857l0.08571,0.04898l0.3125,1.25v0.33333c0,0.42612 -0.10661,0.82733 -0.29461,1.17843l-0.01745,0.0698l-0.01399,0.25177l0.06211,1.11803l-0.129,0.086l-0.01075,0.19351l-0.19604,0.16804l-0.04611,0.18442l-0.08571,0.04898l-0.00548,0.09857l-0.57308,0.49121l-0.09146,0.13719l-0.00213,0.03826l-0.49104,0.42089l-0.47854,0.43504l-0.03823,-0.00264l-0.27427,0.13714z"/></g></g></svg>