<svg version="1.1" xmlns="http://www.w3.org/2000/svg" xmlns:xlink="http://www.w3.org/1999/xlink" width="69.00006" height="59.69785" viewBox="0,0,69.00006,59.69785"><g transform="translate(-201.92515,-145.41793)"><g data-paper-data="{&quot;isPaintingLayer&quot;:true}" fill="#032500" fill-rule="nonzero" stroke="none" stroke-width="0.25" stroke-linecap="butt" stroke-linejoin="miter" stroke-miterlimit="10" stroke-dasharray="" stroke-dashoffset="0" style="mix-blend-mode: normal"><path d="M270.92521,178.26685c0,0.91756 -0.49431,1.71966 -1.23117,2.15454l-0.01883,0.03296l-0.07157,0.01789c-0.3511,0.188 -0.75232,0.29461 -1.17843,0.29461h-0.28641l-0.16933,0.84663l-1.08703,0.69175l-0.31404,0.10468l-0.24565,0.28659l-0.09857,0.00548l-0.04898,0.08571l-0.88139,0.22035l-0.3044,0.35513l-0.09857,0.00548l-0.04898,0.08571l-1.25,0.3125h-0.37705l-0.22541,0.26298l-0.09857,0.00548l-0.04898,0.08571l-1.09351,0.27338l-0.25894,0.3021l-0.09857,0.00548l-0.04898,0.08571l-0.73633,0.18408l-0.03278,0.01639l-0.59779,0.59779l-0.00551,0.02754l-0.06058,0.03855l-0.04926,0.04926l-0.49257,0.29554l-0.48463,0.3084l-0.06609,0.02203l-0.06157,0.03694l-0.02709,-0.00739l-0.09525,0.03175l-0.10064,0.06404l-0.20905,0.24389l-0.10282,0.00571l-0.05084,0.0799l-0.03294,0.1647l-0.12078,0.07686l-0.07686,0.12078l-0.1647,0.03294l-0.28341,0.18035l-0.4599,0.3942l-0.47854,0.43504l-0.03823,-0.00264l-0.27427,0.13714l-1.06149,1.06149l0.00073,0.01061l-0.43504,0.47854l-0.42089,0.49104l-0.03826,0.00213l-0.12638,0.08425l-0.08114,0.08925l-0.42089,0.49104l-0.03826,0.00213l-0.12638,0.08425l-0.08114,0.08925l-0.42089,0.49104l-0.03826,0.00213l-0.12638,0.08425l-0.08114,0.08925l-0.42089,0.49104l-0.03826,0.00213l-0.12638,0.08425l-0.08114,0.08925l-0.42089,0.49104l-0.03826,0.00213l-0.47253,0.31502l-0.14877,0.05313l-0.01659,0.01422l-0.07391,0.07391l-0.17295,0.20177l-0.20676,0.34461l-1,1l-0.34461,0.20676l-0.20177,0.17295l-0.28696,0.28696l-0.34461,0.20676l-0.30513,0.26154l-0.52745,0.26373l-0.3705,0.247l-0.14877,0.05313l-0.01659,0.01422l-0.28696,0.28696l-0.21352,0.12811l-0.1675,0.18425l-0.5,0.33333l-0.05857,0.02092l-0.26901,0.50438l-0.01491,0.07453l-0.03761,0.02393l-0.02098,0.03933l-0.07317,0.02058l-0.6016,0.38284l-0.67277,0.61161l-0.05481,0.09592l-0.06993,0.01748l-0.05334,0.04849l-0.07382,-0.00509l-0.15537,0.18127l-0.03826,0.00213l-0.26656,0.1777l-0.15829,0.15829l-0.21352,0.12811l-0.1675,0.18425l-0.79403,0.52935l-0.15829,0.15829l-0.21352,0.12811l-0.1675,0.18425l-0.5,0.33333l-0.14877,0.05313l-0.11994,0.10281l-0.09226,0.04613l-0.09134,0.15224l-0.33333,0.33333l-0.42292,0.25375l-0.09485,0.16598l-0.31164,0.07791l-0.27545,0.16527l-0.17305,-0.04719l-0.89929,0.44964l-0.8705,0.58033l-0.09473,0.03383l-0.04202,0.07354l-0.54632,0.13658l-0.53033,0.1894l-0.07576,-0.03788l-0.09758,0.0244h-1.02557l-0.36809,0.09202h-0.30776l-0.00913,0.00228l-0.33221,0.11074l-0.40069,0.03082l-0.20954,0.05238l-0.08307,0.04154l-0.01393,0.02438l-0.06966,0.01742l-0.06231,0.03115l-0.56075,0.12461l-0.55728,0.13932h-0.06966l-0.07009,0.01558l-0.02336,-0.01558h-1.67376l-0.02336,0.01558l-0.07009,-0.01558h-0.06966l-0.55728,-0.13932l-0.12306,-0.02735h-0.15299l-0.29857,-0.07464h-0.30776l-0.66667,-0.16667l-0.3775,-0.20133l-0.40291,-0.1439l-0.3705,-0.247l-0.03521,-0.0176l-0.33145,-0.11048l-0.4161,-0.26479l-0.19087,-0.0106l-0.15309,-0.1786l-0.06741,-0.01498l-0.06231,-0.03115l-0.06966,-0.01742l-0.01393,-0.02438l-0.52077,-0.26038l-0.17384,-0.14901l-0.03771,0.01028l-0.27545,-0.16527l-0.31164,-0.07791l-0.09485,-0.16598l-0.06971,-0.04182l-0.50211,-0.12553l-0.04898,-0.08571l-0.09857,-0.00548l-0.11387,-0.13285l-0.27329,-0.06073l-0.06231,-0.03115l-0.06966,-0.01742l-0.01393,-0.02438l-0.02852,-0.01426l-0.33145,-0.11048l-0.15181,-0.09661l-0.17566,-0.03903l-0.50775,-0.25388l-0.33145,-0.11048l-0.15181,-0.09661l-0.05209,-0.01158l-0.00178,0.00049l-0.00233,-0.0014l-0.11946,-0.02655l-0.33333,-0.16667l-0.16291,-0.13964l-0.27634,-0.06908l-0.56075,-0.12461l-0.06231,-0.03115l-0.06966,-0.01742l-0.01393,-0.02438l-0.52077,-0.26038l-0.30513,-0.26154l-0.34461,-0.20676l-0.04646,-0.04646l-0.3038,-0.1519l-0.30513,-0.26154l-0.34461,-0.20676l-0.79926,-0.79926l-0.30631,-0.19493l-0.19087,-0.0106l-0.20905,-0.24389l-0.27101,-0.17246l-0.03749,-0.18746l-0.32097,-0.37447l-0.03333,-0.06667l-0.38236,-0.44609l-0.22679,-0.24947l-0.23948,-0.11974l-0.15498,-0.13284l-0.12453,-0.00692l-0.32251,-0.37626l-0.37626,-0.32251l-0.00692,-0.12453l-0.13284,-0.15498l-0.13108,-0.26216l-0.18703,-0.16031l-0.44582,-0.36223l-0.0418,-0.05573l-0.05452,-0.04673l-0.00156,-0.02804l-0.03829,-0.05105l-0.07051,-0.04487l-0.19087,-0.0106l-0.20905,-0.24389l-0.27101,-0.17246l-0.03749,-0.18746l-0.32097,-0.37447l-0.1519,-0.3038l-0.04646,-0.04646l-0.25375,-0.42292l-0.16598,-0.09485l-0.07791,-0.31164l-0.16527,-0.27545l0.04719,-0.17305l-0.61297,-1.22593l-0.02438,-0.01393l-0.01742,-0.06966l-0.03115,-0.06231l-0.10498,-0.4724l-0.18047,-0.30079l-0.16598,-0.09485l-0.07791,-0.31164l-0.16527,-0.27545l0.0503,-0.18443l-0.07454,-0.29814l-0.44782,-0.89564l-0.05973,-0.26876l-0.12956,-0.24293l-0.14338,-0.57352l-0.11307,-0.33922l-0.30605,-0.76512l-0.01016,-0.07449l-0.04036,-0.06342l-0.03837,-0.11512l-0.25658,-0.34211l-0.07921,-0.18812l-0.10829,-0.06188l-0.12019,-0.48077l-0.19231,-0.45673l0.0495,-0.11448l-0.0495,-0.19802v-0.3589l-0.1354,-0.54161l-0.00579,-0.00966l-0.26154,-0.30513l-0.66667,-1.33333l-0.05973,-0.26876l-0.12518,-0.2347l-0.01346,-0.01346l-0.00731,-0.01218l-0.04394,-0.01236l-0.2922,-0.54787l-0.31946,-0.53244l0.01201,-0.04404l-0.00669,-0.01254l-0.04422,-0.17689l-0.19709,-0.26278l-0.07921,-0.18812l-0.10829,-0.06188l-0.12019,-0.48077l-0.19231,-0.45673l0.00851,-0.01968l-0.21355,-0.33558l-0.02203,-0.06609l-0.03694,-0.06157l0.00739,-0.02709l-0.25852,-0.77556l-0.20937,-0.52343l-0.18894,-0.28341l-0.03383,-0.09473l-0.07354,-0.04202l-0.12553,-0.50211l-0.08361,-0.13936l-0.3084,-0.48463l-0.02203,-0.06609l-0.03694,-0.06157l0.00739,-0.02709l-0.28175,-0.84525l-0.03082,-0.40069l-0.09747,-0.38988v-2.66667l0.09747,-0.38988l0.03082,-0.40069l0.03837,-0.11512v-0.26097l0.11962,-0.47848l-0.0503,-0.18443l0.16527,-0.27545l0.07791,-0.31164l0.16598,-0.09485l0.04182,-0.06971l0.07716,-0.30866l0.03082,-0.40069l0.16667,-0.5l0.12759,-0.20051l-0.00936,-0.13566l0.31895,-0.35084l0.12294,-0.1932l0.01226,-0.07356l0.04063,-0.09345v-0.1019l0.16667,-0.66667l0.12956,-0.24293l0.05973,-0.26876l0.33333,-0.66667l0.26154,-0.30513l0.20676,-0.34461l0.04646,-0.04646l0.31857,-0.63714l0.14789,-0.17253l0.08818,-0.20943l0.35658,-0.47544l0.10504,-0.31512l0.04036,-0.06342l0.01016,-0.07449l0.30605,-0.76512l0.3101,-0.9303l0.26479,-0.4161l0.0106,-0.19087l0.13285,-0.11387l0.06073,-0.27329l0.03115,-0.06231l0.01742,-0.06966l0.02438,-0.01393l0.26038,-0.52077l0.26154,-0.30513l0.08079,-0.13466l0.1887,-0.56609l0.04036,-0.06342l0.01016,-0.07449l0.30605,-0.76512l0.14343,-0.4303l0.09661,-0.15181l0.03903,-0.17566l0.16667,-0.33333l0.14789,-0.17253l0.08818,-0.20943l0.11675,-0.15567l-0.04743,-0.17391l0.16527,-0.27545l0.07791,-0.31164l0.16598,-0.09485l0.25375,-0.42292l0.11294,-0.11294l0.07562,-0.30248l-0.0076,-0.11021l0.04849,-0.05334l0.01748,-0.06993l0.09592,-0.05481l0.62719,-0.68991l0.04689,-0.09378l-0.00264,-0.03823l0.43504,-0.47854l0.42089,-0.49104l0.03826,-0.00213l0.12638,-0.08425l0.08114,-0.08925l0.42089,-0.49104l0.03826,-0.00213l0.12638,-0.08425l0.08114,-0.08925l0.42089,-0.49104l0.03826,-0.00213l0.97253,-0.64835l0.24627,-0.08795l0.212,-0.15311l0.83333,-0.33333l0.07449,-0.01016l0.06342,-0.04036l0.5,-0.16667l0.09774,-0.00752l0.08649,-0.04613l0.17352,-0.04338l0.08797,-0.05278l0.09485,-0.16598l0.31164,-0.07791l0.27545,-0.16527l0.18443,0.0503l0.29814,-0.07454l0.08307,-0.04154l0.01393,-0.02438l0.06966,-0.01742l0.06231,-0.03115l0.56075,-0.12461l0.55728,-0.13932h0.01854l0.38631,-0.15453l0.46914,-0.06397l0.45934,-0.11484h3.00355l0.02336,-0.01558l0.07009,0.01558h0.06966l0.55728,0.13932l0.38708,0.08602l0.21259,-0.01012l0.59059,0.11812h0.25245l0.47848,0.11962l0.18443,-0.0503l0.27545,0.16527l0.31164,0.07791l0.02493,0.04363l0.42874,0.15312l0.54632,0.13658l0.04202,0.07354l0.09473,0.03383l0.02435,0.01623l0.06738,0.01684l0.18443,-0.0503l0.27545,0.16527l0.31164,0.07791l0.09485,0.16598l0.42292,0.25375l0.01503,0.01503l0.01061,-0.00073l0.47854,0.43504l0.06692,0.05736l0.1125,0.025l0.06231,0.03115l0.06966,0.01742l0.01393,0.02438l1.8541,0.92705l0.30513,0.26154l0.34461,0.20676l0.33333,0.33333l0.09258,0.1543l0.13965,0.11347l0.00669,0.00892l0.35533,0.2132l0.54787,0.2922l0.01236,0.04394l0.01218,0.00731l0.28696,0.28696l0.33278,0.28524l0.44582,0.36223l0.0418,0.05573l0.05452,0.04673l0.00156,0.02804l0.40213,0.53617l0.15595,0.37038l0.21576,0.33905l0.02203,0.06609l0.00214,0.00357l0.18425,0.1675l0.19602,0.29403l0.14991,0.14991l0.26656,0.1777l0.03826,0.00213l0.42089,0.49104l0.43504,0.47854l-0.00264,0.03823l0.05109,0.10218l0.14416,0.19222l0.32168,0.19301l0.5,0.5l0.09258,0.1543l0.13965,0.11347l0.1459,0.19453l0.10927,0.05464l0.03823,-0.00264l0.47854,0.43504l0.49104,0.42089l0.00213,0.03826l0.1777,0.26656l0.14991,0.14991l0.29403,0.19602l0.1675,0.18425l0.21352,0.12811l0.33333,0.33333l0.09258,0.1543l0.13965,0.11347l0.13462,0.17949l0.36538,0.15385l0.66667,0.5l0.11347,0.13965l0.1543,0.09258l0.66667,0.66667l0.20676,0.34461l0.20706,0.24157l0.24157,0.20706l0.34461,0.20676l0.37437,0.37437l0.52453,0.3934l0.02529,0.03112l0.03645,0.01671l0.74862,0.59889l0.90973,0.60649l0.1675,0.18425l0.21352,0.12811l0.97049,0.97049l0.35689,0.14276l0.14257,0.10297l0.1693,0.04762l1.16667,0.66667l0.14226,0.13634l0.17913,0.0821l0.68115,0.54492l0.99746,0.56998l0.14226,0.13634l0.17913,0.0821l1.63617,1.30894l0.45508,0.34131l0.79837,0.39919l0.30513,0.26154l0.34461,0.20676l1.71313,1.71313l0.3038,0.1519l0.17253,0.14789l0.20943,0.08818l0.66667,0.5l0.26692,0.32852l0.31321,0.28473l0.19602,0.29403l0.12421,0.12421l0.37484,0.23853l0.49257,0.29554l0.04926,0.04926l0.06058,0.03855l0.00551,0.02754l0.09779,0.09779l0.72501,0.36251l1.0671,0.26677l0.24293,0.12956l0.26876,0.05973l0.42121,0.2106l0.34272,0.08568l0.775,0.155l0.20902,0.09901l0.22916,0.03125l0.38631,0.15453h0.18521l0.29857,0.07464h0.30776l0.36809,0.09202h0.19224l0.29857,0.07464h0.30776l0.36809,0.09202h0.19224c0.42612,0 0.82733,0.10661 1.17843,0.29461l0.07157,0.01789l0.01883,0.03296c0.73685,0.43488 1.23117,1.23698 1.23117,2.15454z"/></g></g></svg>