<svg version="1.1" xmlns="http://www.w3.org/2000/svg" xmlns:xlink="http://www.w3.org/1999/xlink" width="75.34895" height="66.36448" viewBox="0,0,75.34895,66.36448"><g transform="translate(-202.57626,-144.7514)"><g data-paper-data="{&quot;isPaintingLayer&quot;:true}" fill="#032500" fill-rule="nonzero" stroke="none" stroke-width="0.25" stroke-linecap="butt" stroke-linejoin="miter" stroke-miterlimit="10" stroke-dasharray="" stroke-dashoffset="0" style="mix-blend-mode: normal"><path d="M277.92521,179.93352c0,0.78644 -0.36314,1.48807 -0.93088,1.94635l0.00028,0.00502l-0.04258,0.02839c-0.09189,0.07097 -0.18887,0.13569 -0.29028,0.19352l-0.27282,0.18188l-0.38039,0.66568l-0.98901,0.24725l-0.12124,0.08082l-0.10697,-0.02377l-0.03278,0.0082h-0.5199l-0.08255,0.09631l-0.09857,0.00548l-0.04898,0.08571l-1.25,0.3125h-0.00818l-0.31364,0.18819l-0.09485,0.16598l-0.31164,0.07791l-0.23539,0.14123l-0.30543,0.35634l-0.09857,0.00548l-0.04898,0.08571l-0.73633,0.18408l-0.03278,0.01639l-0.04646,0.04646l-0.21352,0.12811l-0.1675,0.18425l-0.16466,0.10978l-0.49121,0.57308l-0.09857,0.00548l-0.04898,0.08571l-0.66927,0.16732l-0.34985,0.40816l-0.09857,0.00548l-0.04898,0.08571l-0.70171,0.17543l-0.31989,0.25591l-0.10057,0.04609l-0.07442,0.08186l-0.29403,0.19602l-0.04295,0.04295l-0.00551,0.02754l-0.06058,0.03855l-0.04926,0.04926l-0.49257,0.29554l-0.48463,0.3084l-0.06609,0.02203l-0.06157,0.03694l-0.02709,-0.00739l-0.41134,0.13711l-0.13466,0.08079l-0.30513,0.26154l-0.3038,0.1519l-1.06149,1.06149l0.00073,0.01061l-0.39324,0.43256l-0.0967,0.43517l0.00049,0.00178l-0.0014,0.00233l-0.02655,0.11946l-0.03115,0.06231l-0.01742,0.06966l-0.02438,0.01393l-0.09372,0.18744l-0.26154,0.30513l-0.13349,0.22248l-0.10498,0.4724l-0.03115,0.06231l-0.01742,0.06966l-0.02438,0.01393l-0.4582,0.91641l-0.0109,0.04361l-0.12461,0.56075l-0.03115,0.06231l-0.01742,0.06966l-0.02438,0.01393l-0.26038,0.52077l-0.13964,0.16291l-0.06908,0.27634l-0.09715,0.43719l0.00049,0.00178l-0.0014,0.00233l-0.02655,0.11946l-0.03115,0.06231l-0.01742,0.06966l-0.02438,0.01393l-0.09372,0.18744l-0.26154,0.30513l-0.13349,0.22248l-0.10498,0.4724l-0.03115,0.06231l-0.01742,0.06966l-0.02438,0.01393l-0.26038,0.52077l-0.13284,0.15498l-0.00692,0.12453l-0.37626,0.32251l-0.29009,0.33844l-0.00032,0.00572l-0.01729,0.01482l-0.01482,0.01729l-0.00572,0.00032l-0.45321,0.38847l-0.08925,0.08114l-0.10256,0.15385l-0.17586,0.15987l-0.02667,0.13334l-0.40002,0.25456l-0.35084,0.31895l-0.13566,-0.00936l-0.09072,0.05773l-0.13259,0.13259l-0.01218,0.00731l-0.01236,0.04394l-0.54787,0.2922l-0.53244,0.31946l-0.04404,-0.01201l-0.01254,0.00669l-1.0671,0.26677l-0.55292,0.27646l-0.48633,0.36475l-0.18812,0.07921l-0.06188,0.10829l-0.48077,0.12019l-0.45673,0.19231l-0.11448,-0.0495l-0.19802,0.0495h-0.40983l-0.1388,0.0694l-0.17566,0.03903l-0.15181,0.09661l-1,0.33333l-0.09774,0.00752l-0.07827,0.04174l-0.01346,0.01346l-0.42292,0.25375l-0.09485,0.16598l-0.31164,0.07791l-0.13735,0.08241l-0.07014,0.08183l-0.17084,0.00949l-0.29823,0.21539l-0.83333,0.33333l-0.05496,0.00749l-0.10575,0.10575l-0.01218,0.00731l-0.01236,0.04394l-0.54787,0.2922l-0.53244,0.31946l-0.04404,-0.01201l-0.01254,0.00669l-0.17689,0.04422l-0.26278,0.19709l-0.20943,0.08818l-0.17253,0.14789l-1.33333,0.66667l-0.26876,0.05973l-0.24293,0.12956l-0.17689,0.04422l-0.26278,0.19709l-0.20943,0.08818l-0.17253,0.14789l-1.79837,0.89919l-1.15299,0.86475l-0.20943,0.08818l-0.17253,0.14789l-0.46504,0.23252l-0.90926,0.68194l-0.00051,0.00182l-0.00663,0.00353l-0.2366,0.17745l-0.45656,0.19224l-0.28068,0.1497l-0.45795,0.41632l-0.05481,0.09592l-0.06993,0.01748l-0.05334,0.04849l-0.11021,-0.0076l-1.01652,0.25413h-3.50355l-0.02336,0.01558l-0.07009,-0.01558h-0.06966l-0.55728,-0.13932l-0.56075,-0.12461l-0.06231,-0.03115l-0.06966,-0.01742l-0.01393,-0.02438l-0.18744,-0.09372l-0.17253,-0.14789l-0.20943,-0.08818l-0.34211,-0.25658l-0.11512,-0.03837l-0.33905,-0.21576l-0.37038,-0.15595l-0.34211,-0.25658l-0.11512,-0.03837l-0.33905,-0.21576l-0.37038,-0.15595l-0.48633,-0.36475l-0.46504,-0.23252l-0.17253,-0.14789l-0.20943,-0.08818l-1.15299,-0.86475l-0.46504,-0.23252l-0.17253,-0.14789l-0.20943,-0.08818l-0.66667,-0.5l-0.11347,-0.13965l-0.1543,-0.09258l-0.54104,-0.54104l-0.52453,-0.3934l-0.11347,-0.13965l-0.1543,-0.09258l-0.18013,-0.18013l-0.33675,-0.1796l-0.17542,0.0121l-0.28119,-0.25562l-0.3353,-0.17883l-0.04761,-0.16927l-0.20389,-0.18535l-0.12331,-0.06166l-0.30513,-0.26154l-0.34461,-0.20676l-0.37437,-0.37437l-0.19998,-0.14998l-0.11512,-0.03837l-0.72469,-0.46117l-0.1647,-0.03294l-0.07686,-0.12078l-0.12078,-0.07686l-0.03294,-0.1647l-0.00819,-0.01287l-0.1993,-0.09965l-0.30513,-0.26154l-0.34461,-0.20676l-0.33333,-0.33333l-0.20676,-0.34461l-0.17295,-0.20177l-0.17161,-0.17161l-0.02754,-0.00551l-0.03855,-0.06058l-0.04926,-0.04926l-0.19965,-0.33274l-0.0968,-0.00538l-0.20905,-0.24389l-0.27101,-0.17246l-0.03749,-0.18746l-0.32097,-0.37447l-0.23252,-0.46504l-0.25814,-0.34419l-0.37437,-0.37437l-0.20676,-0.34461l-0.26154,-0.30513l-0.06585,-0.13171l-0.36475,-0.48633l-0.08818,-0.20943l-0.14789,-0.17253l-0.06585,-0.13171l-0.25814,-0.34419l-0.54104,-0.54104l-0.20676,-0.34461l-0.26154,-0.30513l-0.06585,-0.13171l-0.25814,-0.34419l-0.2077,-0.2077l-0.20676,-0.34461l-0.26154,-0.30513l-0.1519,-0.3038l-0.3798,-0.3798l-0.00731,-0.01218l-0.04394,-0.01236l-0.2922,-0.54787l-0.30776,-0.51293l-0.06612,-0.07714l-0.43504,-0.47854l0.00264,-0.03823l-0.10896,-0.21793l-0.4506,-0.751l-0.0635,-0.20864l-0.17636,-0.194l-0.3632,-0.33018l-0.63758,-0.95637l-0.01317,-0.00073l-0.42089,-0.49104l-0.43504,-0.47854l0.00073,-0.01061l-0.06635,-0.06635l-0.02754,-0.00551l-0.03855,-0.06058l-0.04926,-0.04926l-0.29554,-0.49257l-0.3084,-0.48463l-0.02203,-0.06609l-0.03694,-0.06157l0.00299,-0.01095l-0.05617,-0.07489l-0.00182,-0.00051l-0.00353,-0.00663l-0.17745,-0.2366l-0.19224,-0.45656l-0.23312,-0.4371l-0.07173,-0.28692l-0.00291,-0.00692l0.00075,-0.00173l-0.13615,-0.54461l-0.00579,-0.00966l-0.26154,-0.30513l-0.16667,-0.33333l-0.02655,-0.11946l-0.0014,-0.00233l0.00049,-0.00178l-0.03227,-0.1452l-0.12956,-0.24293l-0.04338,-0.17352l-0.05278,-0.08797l-0.16598,-0.09485l-0.07791,-0.31164l-0.16527,-0.27545l0.0503,-0.18443l-0.11962,-0.47848v-3.58578l-0.11812,-0.59059l0.01184,-0.24872l-0.06039,-0.24157v-0.65299l-0.02735,-0.12306l-0.13932,-0.55728v-0.06966l-0.01558,-0.07009l0.01558,-0.02336v-3.57498l-0.02083,-0.0119l-0.01742,-0.06966l-0.03115,-0.06231l-0.12461,-0.56075l-0.13932,-0.55728v-0.06966l-0.01558,-0.07009l0.01558,-0.02336v-5.34043l-0.01558,-0.02336l0.01558,-0.07009v-0.06966l0.13932,-0.55728l0.02735,-0.12306v-0.48633l0.07464,-0.29857v-0.30776l0.09202,-0.36809v-0.19224l0.3125,-1.25l0.08571,-0.04898l0.00548,-0.09857l0.13285,-0.11387l0.06073,-0.27329l0.03115,-0.06231l0.01742,-0.06966l0.02438,-0.01393l0.01426,-0.02852l0.11048,-0.33145l0.17927,-0.28172l0.11231,-0.31447l0.09313,-0.13969l0.06164,-0.24656l0.12956,-0.24293l0.05973,-0.26876l0.16667,-0.33333l0.10281,-0.11994l0.05313,-0.14877l0.247,-0.3705l0.26373,-0.52745l0.10281,-0.11994l0.05313,-0.14877l0.33333,-0.5l0.18425,-0.1675l0.12811,-0.21352l0.15829,-0.15829l0.1777,-0.26656l0.00213,-0.03826l0.49104,-0.42089l0.47854,-0.43504l0.01061,0.00073l1.34836,-1.34836l0.34461,-0.20676l0.20177,-0.17295l0.28696,-0.28696l0.21352,-0.12811l0.1675,-0.18425l0.44226,-0.29484l0.12603,-0.09453l0.04487,-0.07051l0.0106,-0.19087l0.24389,-0.20905l0.17246,-0.27101l0.18746,-0.03749l0.37447,-0.32097l0.52745,-0.26373l0.02434,-0.01623l0.08114,-0.08925l0.42089,-0.49104l0.03826,-0.00213l0.47253,-0.31502l0.0044,-0.00157l0.74421,-0.67655l0.05481,-0.09592l0.06993,-0.01748l0.05334,-0.04849l0.11021,0.0076l0.33876,-0.08469l0.06662,-0.04441l0.46902,-0.35176l0.37437,-0.37437l0.42292,-0.25375l0.09485,-0.16598l0.31164,-0.07791l0.27545,-0.16527l0.17657,0.04816l0.05191,-0.05191l0.34461,-0.20676l0.30513,-0.26154l0.12331,-0.06166l0.09045,-0.08223l0.02667,-0.13334l0.40002,-0.25456l0.35084,-0.31895l0.0963,0.00664l0.29956,-0.34949l0.09857,-0.00548l0.04898,-0.08571l1.25,-0.3125h3.17021l0.02336,-0.01558l0.07009,0.01558h0.06966l0.55728,0.13932l0.12306,0.02735h0.31966l0.29857,0.07464h0.30776l0.66667,0.16667l0.24293,0.12956l0.26876,0.05973l0.1388,0.0694h0.0765l0.29857,0.07464h0.30776l0.66667,0.16667l0.24293,0.12956l0.1452,0.03227l0.00178,-0.00049l0.00233,0.0014l0.11946,0.02655l0.33333,0.16667l0.06837,0.05861l0.00717,-0.00478l0.07009,0.01558h0.06966l0.55728,0.13932l0.56075,0.12461l0.06231,0.03115l0.06966,0.01742l0.01393,0.02438l0.52077,0.26038l0.11994,0.10281l0.14877,0.05313l0.22143,0.14762l0.18239,0.0608l0.07165,0.0456l0.52839,0.1321l0.56075,0.12461l0.06231,0.03115l0.06966,0.01742l0.01393,0.02438l1.18744,0.59372l0.11994,0.10281l0.14877,0.05313l0.3705,0.247l0.03521,0.0176l0.33145,0.11048l0.28172,0.17927l0.31447,0.11231l0.3705,0.247l0.03521,0.0176l0.33145,0.11048l0.28172,0.17927l0.31447,0.11231l0.3705,0.247l0.03521,0.0176l0.33145,0.11048l0.33905,0.21576l0.37038,0.15595l0.82233,0.61675l0.17391,-0.04743l0.27545,0.16527l0.31164,0.07791l0.09485,0.16598l0.42292,0.25375l0.15829,0.15829l0.01546,0.01031l0.0913,0.03043l0.57352,0.14338l0.01254,0.00669l0.04404,-0.01201l0.53244,0.31946l0.54787,0.2922l0.00339,0.01206l0.19305,0.04826l0.01254,0.00669l0.04404,-0.01201l0.53244,0.31946l0.54787,0.2922l0.01236,0.04394l0.01218,0.00731l0.15829,0.15829l0.43372,0.28915l0.24656,0.06164l0.34497,0.18398l0.17542,-0.0121l0.28119,0.25562l0.3353,0.17883l0.03172,0.11277l0.01563,0.0012l0.5,0.16667l0.33905,0.21576l0.37038,0.15595l1.00878,0.75658l0.11512,0.03837l0.33905,0.21576l0.37038,0.15595l0.26278,0.19709l0.17689,0.04422l0.34497,0.18398l0.17542,-0.0121l0.28119,0.25562l0.3353,0.17883l0.04761,0.16927l0.28929,0.26299l0.05598,0.08397l0.58397,0.38932l0.1675,0.18425l0.21352,0.12811l0.15829,0.15829l0.29403,0.19602l0.28473,0.31321l0.32852,0.26692l0.0363,0.0484l0.73579,0.39242l0.07453,0.01491l0.02393,0.03761l0.03933,0.02098l0.02058,0.07317l0.38284,0.6016l0.23695,0.26065l0.3632,0.33018l0.19602,0.29403l0.14991,0.14991l0.29403,0.19602l0.1675,0.18425l0.21352,0.12811l0.33333,0.33333l0.20676,0.34461l0.04343,0.05067l0.58747,0.31332l0.07453,0.01491l0.02393,0.03761l0.03933,0.02098l0.02058,0.07317l0.6079,0.95528l0.03837,0.11512l0.036,0.048l0.32168,0.19301l0.5,0.5l0.09258,0.1543l0.13965,0.11347l0.27942,0.37256l0.32168,0.19301l0.5,0.5l0.09258,0.1543l0.13965,0.11347l0.27942,0.37256l0.32168,0.19301l0.32496,0.32496l0.29403,0.19602l0.33018,0.3632l0.3632,0.33018l0.19602,0.29403l0.14991,0.14991l0.26656,0.1777l0.03826,0.00213l0.42089,0.49104l0.19487,0.21435l0.54844,0.43875l0.08532,0.11198l0.12071,0.07243l0.3798,0.3798l0.3038,0.1519l0.30513,0.26154l0.34461,0.20676l0.3798,0.3798l0.1579,0.07895l0.02786,-0.00348l0.05573,0.04528l0.06231,0.03115l0.43614,0.37384l0.44582,0.36223l0.0418,0.05573l0.05452,0.04673l0.00156,0.02804l0.03674,0.04899l0.36538,0.15385l0.48633,0.36475l0.13171,0.06585l0.28661,0.24567l0.4657,0.16632l0.54632,0.13658l0.04202,0.07354l0.09473,0.03383l0.3705,0.247l2.19412,1.09706l0.30513,0.26154l0.22248,0.13349l0.4724,0.10498l0.06231,0.03115l0.06966,0.01742l0.01393,0.02438l0.02852,0.01426l0.33145,0.11048l0.33905,0.21576l0.37038,0.15595l0.34211,0.25658l0.11512,0.03837l0.4161,0.26479l0.19087,0.0106l0.20905,0.24389l0.20019,0.12739l0.01642,0.00821l0.17305,-0.04719l0.27545,0.16527l0.31164,0.07791l0.09485,0.16598l0.42292,0.25375l0.33333,0.33333c0.28705,0.28705 0.50462,0.64358 0.62532,1.04219l0.0376,0.06266l-0.00988,0.03622c0.0517,0.20027 0.0792,0.41027 0.0792,0.6267z"/></g></g></svg>