<svg version="1.1" xmlns="http://www.w3.org/2000/svg" xmlns:xlink="http://www.w3.org/1999/xlink" width="28.05625" height="11.77287" viewBox="0,0,28.05625,11.77287"><g transform="translate(-227.46375,-172.56376)"><g data-paper-data="{&quot;isPaintingLayer&quot;:true}" fill="#103c19" fill-rule="nonzero" stroke="none" stroke-width="0.5" stroke-linecap="butt" stroke-linejoin="miter" stroke-miterlimit="10" stroke-dasharray="" stroke-dashoffset="0" style="mix-blend-mode: normal"><path d="M251.06782,179.68212c-0.00778,-0.01103 -0.01572,-0.02207 -0.02381,-0.03311zM250.53234,179.11337c-1.79632,-1.52729 -6.0966,-2.69912 -7.5256,-0.47551c-1.10048,1.71242 -1.45465,4.28479 -3.30379,5.13577c-4.75342,2.18755 -8.38327,-2.52189 -11.35538,-5.19502c0,0 -1.85823,-1.67241 -0.18582,-3.53065c1.67241,-1.85823 3.53065,-0.18582 3.53065,-0.18582c0.68576,0.61757 4.42253,5.19719 5.84462,4.40498c1.15254,-0.64205 0.62119,-2.67685 1.49621,-3.66423c3.01113,-3.39778 9.98559,-3.99351 13.79275,-1.54969c0.92542,0.59403 1.43079,1.67029 2.14619,2.50544l0.54783,2.36174c0,0 0,2.5 -2.5,2.5c-2.07404,0 -2.42742,-1.72067 -2.48763,-2.30701z"/></g></g></svg>