<svg version="1.1" xmlns="http://www.w3.org/2000/svg" xmlns:xlink="http://www.w3.org/1999/xlink" width="167.9136" height="161.4178" viewBox="0,0,167.9136,161.4178"><g transform="translate(-156.86526,-98.59627)"><g data-paper-data="{&quot;isPaintingLayer&quot;:true}" fill-rule="nonzero" stroke="none" stroke-linecap="butt" stroke-linejoin="miter" stroke-miterlimit="10" stroke-dasharray="" stroke-dashoffset="0" style="mix-blend-mode: normal"><path d="M171.65618,131.77745c-0.04702,-0.31161 -0.03445,-0.53028 -0.03445,-0.53028c0.36139,-6.28606 -0.93112,-13.73003 1.27394,-19.77523c0.36087,-0.98933 1.25453,-1.70159 1.74588,-2.63302c1.25263,-2.37455 1.35228,-5.59743 5.05583,-6.10837c5.44584,-0.7513 4.85765,2.82721 7.4806,5.55021c1.00282,1.04107 2.40653,1.60445 3.56554,2.46827c2.88106,2.14729 5.95385,4.74681 9.88976,4.18148c1.23682,-0.17764 4.67136,-2.05285 5.24274,-2.33739c3.95223,-2.55312 6.73796,-7.22589 10.14796,-10.53141c1.76125,-1.70729 3.83782,-3.73659 6.65811,-3.43551c3.21941,0.34369 4.77083,3.5864 7.92757,3.97157c5.98727,0.73053 12.80207,2.12413 18.84635,1.59633c4.70136,-0.41054 9.38722,-1.37811 14.1573,-1.69509c3.59374,-0.23881 7.07511,-0.01451 10.64442,-0.40051c0.82001,0.04548 8.56671,0.42905 9.03425,0.66042c1.73792,0.86002 3.24739,2.34172 4.18809,4.03732c1.41829,2.55645 -0.87241,3.81362 -0.2628,6.22805c0.18279,0.72394 0.94277,1.15817 1.40598,1.74378c0.38947,0.4924 0.57534,1.24171 1.15193,1.49009c1.14404,0.49282 2.51982,0.16635 3.68928,0.59535c0.91909,0.33716 1.52061,1.28702 2.43004,1.64944c1.09477,0.43629 2.37456,0.25436 3.46553,0.70006c1.85119,0.75628 3.17272,2.48571 4.97433,3.35351c2.78147,1.33978 4.41566,0.74624 6.27343,3.61467c5.0709,7.82955 -1.44274,16.5313 1.31347,24.43566c3.89467,5.855 10.29531,9.53962 12.26894,16.71502c2.83436,10.30471 -5.39941,18.92443 -7.0447,28.5615c-0.23632,1.38419 0.76497,2.70231 1.13117,4.05794c0.29643,1.09735 -0.06717,2.31134 0.25905,3.40021c0.24119,0.80505 1.17336,1.29149 1.38986,2.10353c0.62556,2.34624 0.4258,4.83961 0.75522,7.24536c-0.19344,3.49112 -0.1952,6.29838 -1.1186,9.7648c-0.61268,2.29999 -3.00171,5.39624 -4.03659,7.18956c-4.46725,7.74112 -11.37705,14.68173 -19.01166,19.49934c-2.88661,1.82151 -6.56507,4.28052 -9.90708,5.25173c-5.57589,1.6204 -13.14766,-0.10082 -18.87022,-0.42982c-3.41051,-0.19607 -7.03801,-0.81983 -10.43329,-0.16598c-8.30444,1.59925 -15.7301,6.75473 -24.5382,6.1677c-8.33918,-0.55578 -12.48257,-8.16354 -18.93962,-11.89124c-1.84566,-1.06551 -2.93906,-0.89638 -4.89868,-1.58197c-4.13726,-1.44747 -8.04206,-3.43804 -12.00282,-5.29269c-5.34698,-2.50377 -11.48162,-5.15035 -15.73325,-9.38319c-1.33959,-1.33368 -2.17918,-3.55639 -3.10989,-5.1485c-1.70292,-2.91308 -3.62065,-5.8725 -5.42157,-8.70301c-2.43515,-3.82734 -6.37069,-6.58088 -8.53918,-10.71093c-3.09674,-5.89796 -4.06543,-12.88551 -4.75846,-19.41325c0.23465,-4.25205 0.59726,-8.41337 -0.20987,-12.63645c-1.23877,-6.48156 -3.04515,-12.79697 -1.94596,-19.49279c0.67641,-4.12037 2.90439,-6.99243 5.61005,-9.99889c3.32413,-3.69368 6.28597,-5.00388 6.55084,-10.0899l0.08609,-1.49753c0,0 0.12631,-2.19712 2.20334,-2.34998z" fill="#8b0000" stroke-width="0.5"/><path d="M219.54202,139.26286c0.01889,0.01084 0.03751,0.02175 0.05588,0.03272c0.03761,-0.0379 0.05995,-0.05781 0.05995,-0.05781c4.97654,-4.34433 7.04028,-11.17081 11.84808,-15.76615c2.2185,-2.12046 5.11642,-3.49007 7.98245,-4.58735c1.30643,-0.50018 2.5251,-1.79903 3.90114,-1.5471c1.62699,0.29787 2.83714,1.7746 3.96249,2.98677c3.80468,4.09825 4.83002,9.13393 6.68484,14.12012c0.4872,1.30972 1.3937,2.4413 1.84895,3.76246c0.26085,0.75702 -0.53282,2.7663 0.17688,2.39557c0.92201,-0.48163 1.62647,-1.36996 2.6085,-1.71303c0.83813,-0.2928 6.97504,-0.66444 7.56215,-0.70623c1.43381,0.49146 2.95386,0.78055 4.30143,1.47438c6.77275,3.48716 14.16984,13.80958 9.96947,21.49479c-0.66355,1.21406 -2.05085,1.86031 -3.01607,2.85156c-3.05249,3.13481 -6.12788,5.16686 -10.39237,6.5178c-0.11505,0.03645 0.2473,-0.04525 0.362,-0.00765c1.05895,0.34725 2.12257,0.69465 3.13741,1.15516c1.49478,0.67828 2.89877,1.54299 4.37779,2.25498c3.62155,1.7434 9.17436,3.66318 10.85746,7.83174c0.85598,2.12002 0.44003,5.35687 0.28196,7.61954c-1.71791,3.78349 -3.89314,7.5571 -6.6247,10.72105c-1.62833,1.88608 -5.18753,3.36547 -5.32306,6.21772c-0.15364,3.23357 1.87178,4.13983 3.24186,6.81361c1.47227,2.87321 3.23608,5.64141 4.22844,8.71356c0.43342,1.34179 0.35645,2.80154 0.40448,4.21076c0.06101,1.79007 -0.44112,5.96101 -1.17511,7.23975c-0.81828,1.42559 -3.9696,3.67457 -5.59728,4.63019c-6.2534,3.67143 -12.94885,5.18287 -20.10187,5.78764c-5.39449,-0.29941 -10.55994,-0.29196 -15.7562,-1.99204c-12.11429,-3.9635 -19.76984,-13.33359 -29.11859,-21.07711c-2.23299,-1.84957 -4.32639,-1.90646 -6.78703,-3.10106c-3.69324,-1.793 -5.87876,-5.26598 -8.21938,-8.44911c-1.722,-3.98646 -4.06974,-9.86159 -2.46138,-14.32383c0.25371,-0.70388 4.118,-5.00484 4.54054,-5.34005c1.38678,-1.10011 3.53948,-0.9322 4.88521,-2.08215c0.23316,-0.19925 -0.54645,-0.30748 -0.74256,-0.54328c-0.66042,-0.7941 -1.31056,-1.61181 -1.80421,-2.51903c-1.53988,-2.82992 -1.86403,-4.11808 -1.97183,-7.26633c-0.13405,-3.91466 -0.22061,-9.99843 0.84921,-13.75451c0.77469,-2.71992 3.04583,-5.29233 3.98253,-7.87736c0.29792,-0.82219 -0.17063,-1.8192 0.18808,-2.61676c0.49845,-1.10826 1.51424,-1.90102 2.27135,-2.85154c4.14908,-2.69038 9.01044,-2.47605 10.30077,-8.14473l0.80763,-1.584c0,0 1.24453,-2.16821 3.41274,-0.92368zM220.07944,143.30903c-1.22092,4.08535 -3.8147,7.58837 -8.02163,9.11384c-1.22438,0.44397 -2.64204,0.47983 -3.71015,1.22503c-0.81936,0.83346 -0.65134,2.24682 -1.05219,3.34469c-0.93305,2.55553 -3.12691,5.05026 -3.92426,7.6945c-0.57029,1.89122 -0.15996,3.94762 -0.27334,5.91969c-0.15424,2.68293 -0.84356,6.06547 -0.12405,8.73417c0.7717,2.86224 5.35921,6.45669 3.95651,9.75781c-1.50297,3.5371 -7.99324,3.55443 -9.46291,7.5183c-1.0304,2.77911 1.11339,7.55419 2.15123,9.98098c1.61051,2.15706 3.34785,5.23163 5.95236,6.38874c2.82797,1.25638 5.29343,1.68173 7.84387,3.74999c8.99861,7.29735 16.05896,16.41861 27.60312,20.2466c4.61513,1.53036 9.27766,1.43973 14.07955,1.72653c3.11265,-0.26402 6.37077,-0.69073 9.39542,-1.50021c1.47442,-0.3946 2.94337,-0.84226 4.34266,-1.45186c1.43147,-0.62363 6.67093,-3.17595 7.69224,-4.95528c0.27906,-0.48618 0.52158,-3.99072 0.51199,-4.68307c-0.10506,-7.58299 -8.32902,-12.66242 -7.85712,-20.2309c0.28608,-4.58819 3.93534,-6.07689 6.57714,-9.12455c2.16269,-2.49495 4.0477,-5.65107 5.50508,-8.61462c0.03078,-0.84415 0.18453,-3.81862 -0.02765,-4.41807c-0.19559,-0.55259 -0.78966,-0.8744 -1.25146,-1.23546c-3.51015,-2.74438 -7.58683,-4.32415 -11.54715,-6.31592c-2.75192,-1.38403 -7.79381,-2.33694 -6.02494,-7.41326c1.06575,-3.0585 7.71018,-4.38058 10.00715,-6.46253c1.29039,-1.1696 2.82719,-2.16229 3.74687,-3.64122c1.26414,-2.03285 0.38169,-5.20197 -0.845,-6.9108c-2.8506,-3.97103 -4.91422,-6.88366 -9.71595,-8.60871c-1.84286,0.19017 -3.75434,0.0199 -5.53121,0.54433c-1.59135,0.46969 -2.96208,2.07578 -4.60954,1.87861c-1.57921,-0.189 -2.85345,-1.60723 -3.80034,-2.88512c-0.60413,-0.8153 -0.21474,-2.03725 -0.55536,-2.9931c-1.43768,-4.03434 -2.92855,-8.57567 -5.05713,-12.327c-0.7427,-1.30891 -1.66619,-2.50668 -2.48535,-3.76914c-0.27594,-0.42526 -0.29378,-1.26107 -0.79968,-1.29361c-0.57061,-0.03669 -0.75303,0.90198 -1.26281,1.16097c-1.06955,0.5434 -2.34145,0.62406 -3.39173,1.20383c-6.99282,3.86023 -9.38492,13.10248 -15.12902,18.30718c0,0 -1.43196,1.27627 -2.9052,0.33863z" fill="#5d5d5d" stroke-width="0.5"/><path d="M223.81688,141.55333c1.37371,1.07818 2.92754,-0.05202 2.92754,-0.05202c6.22883,-4.61361 9.53915,-13.57793 16.87818,-16.73062c1.10228,-0.4735 2.37895,-0.4282 3.49683,-0.86361c0.53281,-0.20753 0.80785,-1.12351 1.37208,-1.0308c0.50023,0.08221 0.43641,0.91584 0.66913,1.3662c0.69083,1.33701 1.49439,2.62039 2.10455,3.99609c1.74874,3.94275 2.79245,8.61106 3.82576,12.76739c0.24482,0.98475 -0.26146,2.16306 0.25943,3.03389c0.81643,1.36493 1.95011,2.90443 3.50302,3.24806c1.62003,0.35848 3.14579,-1.10258 4.77566,-1.41323c1.81988,-0.34686 3.70934,0.01396 5.56197,0.00623c4.60848,2.18962 6.38467,5.30217 8.83027,9.53466c1.05241,1.82135 1.62185,5.06816 0.16363,6.96661c-1.06088,1.38115 -2.6873,2.21917 -4.08662,3.25598c-2.49087,1.84558 -9.23254,2.50839 -10.59437,5.44705c-2.26026,4.8774 2.66653,6.33843 5.26875,7.98678c3.74488,2.37216 7.64552,4.35554 10.86829,7.43231c0.42399,0.40478 0.98324,0.78491 1.12344,1.35408c0.15209,0.61743 -0.29512,3.56737 -0.4089,4.40439c-1.74219,2.8056 -3.93379,5.7718 -6.33172,8.04161c-2.92914,2.77264 -6.71629,3.90578 -7.4529,8.44348c-1.21509,7.4852 6.46194,13.35514 5.81959,20.91161c-0.05865,0.68993 -0.64744,4.15493 -0.97304,4.61127c-1.1916,1.67007 -6.66355,3.69711 -8.14948,4.17671c-1.45253,0.46881 -2.96186,0.77083 -4.46796,1.01829c-3.08968,0.50761 -6.38141,0.61307 -9.50494,0.56923c-4.75029,-0.75838 -9.41073,-1.12701 -13.85269,-3.1045c-11.11098,-4.94644 -17.26771,-14.73117 -25.5038,-22.87938c-2.33432,-2.3094 -4.75207,-2.98209 -7.44254,-4.51091c-2.47787,-1.40803 -3.90885,-4.64637 -5.29907,-6.95157c-0.79376,-2.51722 -2.46067,-7.48998 -1.16154,-10.15408c1.85295,-3.79984 8.31222,-3.18289 10.15628,-6.55475c1.72103,-3.14691 -2.4905,-7.19 -2.97653,-10.11433c-0.45315,-2.72659 0.56864,-6.03603 0.9864,-8.69072c0.30707,-1.95131 0.10428,-4.04482 0.85808,-5.87067c1.05392,-2.55284 3.48899,-4.82827 4.66921,-7.27947c0.50703,-1.05305 0.48182,-2.47906 1.37928,-3.22776c1.13632,-0.63637 2.55375,-0.53527 3.81591,-0.85647c4.33673,-1.10368 7.27547,-4.3418 8.89285,-8.28703z" data-paper-data="{&quot;noHover&quot;:false,&quot;origItem&quot;:[&quot;Path&quot;,{&quot;applyMatrix&quot;:true,&quot;segments&quot;:[[[218.00638,144.51287],[0,0],[-0.98443,4.14869]],[[210.52107,154.07209],[4.11244,-1.76441],[-1.19688,0.51351]],[[206.88735,155.50805],[1.02358,-0.80528],[-0.77017,0.87911]],[[206.02887,158.90762],[0.33717,-1.11907],[-0.78484,2.60487]],[[202.55271,166.81467],[0.64427,-2.68564],[-0.4608,1.92083]],[[202.61959,172.74029],[0,-1.97533],[0,2.68736]],[[202.99705,181.46718],[-0.8715,-2.623],[0.93471,2.81323]],[[207.50709,190.98182],[1.21092,-3.37619],[-1.29748,3.61753]],[[198.4913,199.03086],[1.23974,-4.04169],[-0.86919,2.83367]],[[201.21185,208.87192],[-1.17542,-2.36323],[1.73166,2.06107]],[[207.52108,214.90849],[-2.66663,-1.00572],[2.89542,1.092]],[[215.56725,218.20209],[-2.66494,-1.91846],[9.40261,6.76884]],[[244.28693,236.83101],[-11.74484,-3.15909],[4.69536,1.26295]],[[258.44237,237.74659],[-4.81044,-0.01072],[3.09237,-0.44224]],[[267.7362,235.7096],[-2.97321,0.98174],[1.44934,-0.47857]],[[271.98837,234.01088],[-1.36199,0.68891],[1.39332,-0.70476]],[[279.38352,228.62227],[-0.9175,1.83501],[0.2507,-0.5014]],[[279.62588,223.91753],[0.04931,0.69066],[-0.54012,-7.56446]],[[270.62055,204.17094],[-0.03673,7.58309],[0.02227,-4.59705]],[[276.66314,194.68393],[-2.46252,3.19427],[2.01593,-2.61497]],[[281.6647,185.76754],[-1.28488,3.04232],[-0.01772,-0.84453]],[[281.38352,181.35834],[0.24623,0.58628],[-0.22698,-0.54045]],[[280.06321,180.19675],[0.48176,0.33395],[-3.66188,-2.53839]],[[268.17259,174.554],[4.06811,1.76118],[-2.82682,-1.2238]],[[261.73209,167.49877],[-1.47459,5.16947],[0.88845,-3.11463]],[[271.35182,160.47253],[-2.17369,2.21035],[1.22113,-1.24173]],[[274.88352,156.62226],[-0.83328,1.52928],[1.14538,-2.10206]],[[273.64326,149.77135],[1.32275,1.63561],[-3.07382,-3.80087]],[[263.44922,141.73448],[4.89283,1.44661],[-1.82891,0.29563]],[[257.95837,142.59538],[1.74384,-0.62555],[-1.56177,0.56025]],[[253.46425,144.73546],[1.65606,0.10229],[-1.58745,-0.09805]],[[249.50458,142.07322],[1.01868,1.22143],[-0.64993,-0.77928]],[[248.77834,139.11693],[0.39492,0.93472],[-1.66686,-3.94517]],[[243.02203,127.10051],[2.34038,3.62297],[-0.8166,-1.26412]],[[240.32444,123.48023],[0.89027,1.21336],[-0.29989,-0.40872]],[[239.45183,122.23465],[0.50693,0.00345],[-0.57178,-0.00388]],[[238.25774,123.46619],[0.49407,-0.28783],[-1.0366,0.60389]],[[234.9407,124.86271],[1.01527,-0.6391],[-6.75973,4.25522]],[[220.88737,144.00805],[5.43591,-5.52581],[0,0]],[[218.0064,144.51287],[1.52462,0.85153],[0,0]]],&quot;closed&quot;:true,&quot;fillColor&quot;:[0,0,0,1],&quot;strokeWidth&quot;:0.5}]}" fill="#fff700" stroke-width="0.25"/></g></g></svg>