<svg version="1.1" xmlns="http://www.w3.org/2000/svg" xmlns:xlink="http://www.w3.org/1999/xlink" width="168.38285" height="160.50413" viewBox="0,0,168.38285,160.50413"><g transform="translate(-155.80859,-99.74793)"><g data-paper-data="{&quot;isPaintingLayer&quot;:true}" fill-rule="nonzero" stroke="none" stroke-linecap="butt" stroke-linejoin="miter" stroke-miterlimit="10" stroke-dasharray="" stroke-dashoffset="0" style="mix-blend-mode: normal"><path d="M169.00108,135.77959c-0.06483,-0.3084 -0.06483,-0.52743 -0.06483,-0.52743c0,-6.29644 -1.71763,-13.65395 0.13683,-19.81575c0.30349,-1.00841 1.1548,-1.77079 1.59188,-2.72889c1.11428,-2.44253 1.02878,-5.66582 4.6969,-6.38848c5.39374,-1.06263 5.01191,2.54374 7.78683,5.11171c1.06092,0.9818 2.49465,1.46368 3.70133,2.25955c2.99956,1.97839 6.21648,4.39726 10.11346,3.60696c1.22459,-0.24834 4.54583,-2.31758 5.09994,-2.63445c3.79918,-2.77575 6.31212,-7.60071 9.52677,-11.0965c1.66036,-1.80556 3.61703,-3.9507 6.44995,-3.81199c3.23383,0.15834 4.96881,3.30666 8.14245,3.51001c6.01933,0.38568 12.90288,1.38585 18.9069,0.512c4.67005,-0.6797 9.29265,-1.91462 14.03667,-2.50486c3.57411,-0.44468 7.06261,-0.42057 10.60389,-1.01079c0.82127,-0.00166 8.57721,-0.06335 9.05726,0.1408c1.78442,0.75885 3.37644,2.15147 4.41291,3.79029c1.56268,2.47083 -0.65209,3.85741 0.0951,6.23287c0.22404,0.71226 1.00769,1.10215 1.50375,1.66021c0.41709,0.46923 0.64566,1.20664 1.23556,1.42152c1.17044,0.42634 2.52521,0.02145 3.71737,0.38262c0.93693,0.28385 1.59197,1.19762 2.5207,1.50725c1.11801,0.37274 2.38524,0.11765 3.5,0.5c1.89155,0.64878 3.31016,2.29951 5.15861,3.06248c2.85378,1.17793 4.45121,0.49157 6.47055,3.24864c5.51192,7.5256 -0.49154,16.58686 2.71381,24.31999c4.2243,5.62181 10.82587,8.93299 13.20808,15.98328c3.42113,10.12504 -4.30433,19.20314 -5.39378,28.91875c-0.15648,1.39547 0.91881,2.65395 1.36221,3.98633c0.35892,1.07853 0.0656,2.31139 0.45378,3.37974c0.287,0.78988 1.24555,1.22202 1.5083,2.02029c0.75919,2.30647 0.70287,4.80719 1.16983,7.19007c0.00725,3.49647 0.16662,6.2992 -0.5563,9.81291c-0.47966,2.33136 -2.68704,5.55963 -3.61729,7.40939c-4.01558,7.98476 -10.51563,15.31052 -17.86114,20.55838c-2.7773,1.98419 -6.30856,4.65027 -9.58932,5.8117c-5.47369,1.93776 -13.13177,0.65396 -18.86378,0.65396c-3.41614,0 -7.07346,-0.41453 -10.42562,0.43312c-8.19896,2.07325 -15.31648,7.64643 -24.14375,7.56592c-8.35733,-0.07623 -12.93054,-7.43364 -19.5909,-10.78459c-1.90377,-0.95782 -2.98566,-0.72621 -4.9814,-1.2982c-4.21352,-1.20762 -8.22613,-2.97079 -12.28681,-4.59506c-5.48187,-2.19275 -11.7583,-4.48286 -16.24587,-8.4647c-1.41393,-1.25459 -2.37971,-3.42545 -3.40027,-4.96152c-1.86731,-2.81054 -3.95174,-5.65501 -5.91215,-8.37749c-2.65081,-3.68126 -6.7379,-6.20438 -9.13986,-10.20316c-3.43015,-5.7105 -4.7983,-12.63093 -5.86485,-19.10813c-0.00979,-4.25851 0.11338,-8.43378 -0.9348,-12.60357c-1.60874,-6.39978 -3.77462,-12.6011 -3.06155,-19.34897c0.4388,-4.1524 2.49827,-7.1476 5.02691,-10.3044c3.10665,-3.87838 5.98841,-5.35642 5.96092,-10.44926v-1.5c0,0 0,-2.20075 2.06483,-2.47257z" fill="#8b0000" stroke-width="0.5"/><path d="M217.23761,140.50422c0.01948,0.00974 0.0387,0.01956 0.05767,0.02946c0.03537,-0.04 0.05653,-0.06116 0.05653,-0.06116c4.71899,-4.6228 6.38752,-11.55648 10.92364,-16.42019c2.09314,-2.2443 4.90767,-3.77798 7.706,-5.03795c1.27557,-0.57434 2.41768,-1.94099 3.80591,-1.76846c1.6414,0.204 2.93432,1.60883 4.12739,2.75442c4.03363,3.87312 5.34631,8.84165 7.48425,13.71316c0.56157,1.2796 1.53152,2.35728 2.06185,3.65014c0.30387,0.7408 -0.37317,2.79232 0.31408,2.38147c0.89285,-0.53376 1.54516,-1.46105 2.50588,-1.85992c0.81994,-0.34042 6.92541,-1.06368 7.50915,-1.1391c1.45965,0.40836 2.99379,0.60972 4.37896,1.22507c6.96173,3.09269 14.93909,12.97353 11.18674,20.88715c-0.59277,1.25014 -1.9407,1.97495 -2.84743,3.01997c-2.86753,3.30484 -5.82122,5.51006 -10.00114,7.10353c-0.11277,0.04299 0.2443,-0.05937 0.36096,-0.02841c1.07714,0.2859 2.15894,0.57168 3.19854,0.97318c1.53125,0.59137 2.98255,1.37407 4.5,2c3.71564,1.53266 9.36949,3.13057 11.28907,7.19566c0.97625,2.0674 0.74677,5.32278 0.71882,7.5908c-1.49792,3.87585 -3.45298,7.76809 -5.99844,11.08361c-1.51739,1.97643 -4.98582,3.65766 -4.95741,6.51299c0.03221,3.23706 2.1063,4.02557 3.62759,6.61631c1.63475,2.78397 3.55454,5.44637 4.72159,8.4565c0.50972,1.3147 0.51666,2.77646 0.64549,4.1806c0.16365,1.78362 -0.09826,5.9765 -0.75764,7.29526c-0.73511,1.47021 -3.75215,3.89635 -5.3223,4.94382c-6.03237,4.0243 -12.63003,5.91753 -19.73655,6.93186c-5.40278,0.0107 -10.55929,0.31462 -15.84456,-1.08442c-12.32181,-3.26166 -20.50254,-12.17691 -30.28032,-19.37108c-2.33547,-1.71836 -4.42868,-1.655 -6.95383,-2.7064c-3.79006,-1.57807 -6.17131,-4.91988 -8.69077,-7.96343c-1.94797,-3.88105 -4.62904,-9.61175 -3.27945,-14.15894c0.21289,-0.71728 3.82396,-5.23295 4.22656,-5.59185c1.32135,-1.17789 3.48014,-1.13381 4.75765,-2.35911c0.22134,-0.2123 -0.5632,-0.27561 -0.77252,-0.49976c-0.70491,-0.75489 -1.40091,-1.53393 -1.94582,-2.41132c-1.69977,-2.73687 -2.09732,-4.0043 -2.38564,-7.14118c-0.35851,-3.90051 -0.79411,-9.96929 0.05836,-13.78058c0.6173,-2.7599 2.73705,-5.45842 3.52384,-8.09295c0.25024,-0.83793 -0.27476,-1.80641 0.03758,-2.62324c0.43402,-1.13504 1.40263,-1.9848 2.10394,-2.9772c3.98782,-2.92408 8.85347,-2.98913 9.81632,-8.72252l0.71538,-1.62774c0,0 1.11803,-2.23607 3.3541,-1.11803zM218.00638,144.51287c-0.98443,4.14869 -3.37287,7.79481 -7.48531,9.55922c-1.19688,0.51351 -2.61014,0.63068 -3.63372,1.43596c-0.77017,0.87911 -0.52131,2.2805 -0.85848,3.39957c-0.78484,2.60487 -2.83189,5.22141 -3.47616,7.90705c-0.4608,1.92083 0.06688,3.95029 0.06688,5.92562c0,2.68736 -0.49404,6.10389 0.37746,8.72689c0.93471,2.81323 5.72096,6.13845 4.51004,9.51464c-1.29748,3.61753 -7.77605,4.00735 -9.01579,8.04904c-0.86919,2.83367 1.54513,7.47783 2.72055,9.84106c1.73166,2.06107 3.6426,5.03085 6.30923,6.03657c2.89542,1.092 5.38123,1.37514 8.04617,3.2936c9.40261,6.76884 16.97484,15.46983 28.71968,18.62892c4.69536,1.26295 9.345,0.90486 14.15544,0.91558c3.09237,-0.44224 6.32062,-1.05525 9.29383,-2.03699c1.44934,-0.47857 2.89018,-1.00981 4.25217,-1.69872c1.39332,-0.70476 6.47765,-3.5536 7.39515,-5.38861c0.2507,-0.5014 0.29167,-4.01408 0.24236,-4.70474c-0.54012,-7.56446 -9.04206,-12.1635 -9.00533,-19.74659c0.02227,-4.59705 3.58007,-6.29274 6.04259,-9.48701c2.01593,-2.61497 3.71668,-5.87407 5.00156,-8.91639c-0.01772,-0.84453 -0.03495,-3.82292 -0.28118,-4.4092c-0.22698,-0.54045 -0.83855,-0.82764 -1.32031,-1.16159c-3.66188,-2.53839 -7.82251,-3.88157 -11.89062,-5.64275c-2.82682,-1.2238 -7.91509,-1.88576 -6.4405,-7.05523c0.88845,-3.11463 7.44604,-4.81589 9.61973,-7.02624c1.22113,-1.24173 2.69842,-2.32099 3.5317,-3.85027c1.14538,-2.10206 0.08249,-5.2153 -1.24026,-6.85091c-3.07382,-3.80087 -5.30121,-6.59026 -10.19404,-8.03687c-1.82891,0.29563 -3.74701,0.23535 -5.49085,0.8609c-1.56177,0.56025 -2.83806,2.24237 -4.49412,2.14008c-1.58745,-0.09805 -2.94099,-1.44081 -3.95967,-2.66224c-0.64993,-0.77928 -0.33132,-2.02157 -0.72624,-2.95629c-1.66686,-3.94517 -3.41593,-8.39345 -5.75631,-12.01642c-0.8166,-1.26412 -1.80732,-2.40692 -2.69759,-3.62028c-0.29989,-0.40872 -0.36568,-1.24213 -0.87261,-1.24558c-0.57178,-0.00388 -0.70002,0.94371 -1.19409,1.23154c-1.0366,0.60389 -2.30177,0.75742 -3.31704,1.39652c-6.75973,4.25522 -8.61742,13.61953 -14.05333,19.14534c0,0 -1.35635,1.35635 -2.88097,0.50482z" fill="#5d5d5d" stroke-width="0.5"/><path d="M217.98008,144.47036c1.52462,0.85153 2.88386,-0.50648 2.88386,-0.50648c5.43591,-5.52581 7.31248,-14.89574 14.07221,-19.15096c1.01527,-0.6391 2.28347,-0.79281 3.32007,-1.3967c0.49407,-0.28783 0.62338,-1.23544 1.19516,-1.23156c0.50693,0.00345 0.57348,0.83686 0.87337,1.24558c0.89027,1.21336 1.88356,2.35624 2.70016,3.62036c2.34038,3.62297 4.0971,8.07229 5.76396,12.01746c0.39492,0.93472 0.07797,2.1774 0.7279,2.95668c1.01868,1.22143 2.3779,2.56598 3.96535,2.66403c1.65606,0.10229 2.93615,-1.57819 4.49792,-2.13844c1.74384,-0.62555 3.66642,-0.56283 5.49533,-0.85846c4.89283,1.44661 7.13128,4.24521 10.2051,8.04608c1.32275,1.63561 2.38998,4.75443 1.2446,6.85649c-0.83328,1.52928 -2.30966,2.60994 -3.53079,3.85167c-2.17369,2.21035 -8.73038,3.91311 -9.61883,7.02774c-1.47459,5.16947 3.61943,5.84686 6.44625,7.07066c4.06811,1.76118 8.22965,3.11409 11.89153,5.65248c0.48176,0.33395 1.0933,0.62253 1.32028,1.16298c0.24623,0.58628 0.26302,3.56988 0.28074,4.41441c-1.28488,3.04232 -2.98874,6.31315 -5.00467,8.92812c-2.46252,3.19427 -6.02748,4.90235 -6.04975,9.4994c-0.03673,7.58309 8.45946,12.18828 8.99958,19.75274c0.04931,0.69066 0.00632,4.20507 -0.24438,4.70647c-0.9175,1.83501 -6.00782,4.68802 -7.40114,5.39278c-1.36199,0.68891 -2.80602,1.22189 -4.25536,1.70046c-2.97321,0.98174 -6.20853,1.59762 -9.3009,2.03986c-4.81044,-0.01072 -9.47153,0.3496 -14.16689,-0.91335c-11.74484,-3.15909 -19.34778,-11.86781 -28.75039,-18.63665c-2.66494,-1.91846 -5.15787,-2.20712 -8.05329,-3.29912c-2.66663,-1.00572 -4.58362,-3.98225 -6.31528,-6.04332c-1.17542,-2.36323 -3.59508,-7.01641 -2.72589,-9.85008c1.23974,-4.04169 7.71639,-4.43634 9.01387,-8.05387c1.21092,-3.37619 -3.57792,-6.71544 -4.51263,-9.52867c-0.8715,-2.623 -0.37658,-6.05105 -0.37658,-8.73841c0,-1.97533 -0.52576,-4.01186 -0.06496,-5.93269c0.64427,-2.68564 2.69601,-5.31195 3.48085,-7.91682c0.33717,-1.11907 0.09059,-2.52382 0.86076,-3.40293c1.02358,-0.80528 2.4395,-0.92574 3.63638,-1.43925c4.11244,-1.76441 6.51209,-5.42 7.49652,-9.56869z" data-paper-data="{&quot;noHover&quot;:false,&quot;origItem&quot;:[&quot;Path&quot;,{&quot;applyMatrix&quot;:true,&quot;segments&quot;:[[[218.00638,144.51287],[0,0],[-0.98443,4.14869]],[[210.52107,154.07209],[4.11244,-1.76441],[-1.19688,0.51351]],[[206.88735,155.50805],[1.02358,-0.80528],[-0.77017,0.87911]],[[206.02887,158.90762],[0.33717,-1.11907],[-0.78484,2.60487]],[[202.55271,166.81467],[0.64427,-2.68564],[-0.4608,1.92083]],[[202.61959,172.74029],[0,-1.97533],[0,2.68736]],[[202.99705,181.46718],[-0.8715,-2.623],[0.93471,2.81323]],[[207.50709,190.98182],[1.21092,-3.37619],[-1.29748,3.61753]],[[198.4913,199.03086],[1.23974,-4.04169],[-0.86919,2.83367]],[[201.21185,208.87192],[-1.17542,-2.36323],[1.73166,2.06107]],[[207.52108,214.90849],[-2.66663,-1.00572],[2.89542,1.092]],[[215.56725,218.20209],[-2.66494,-1.91846],[9.40261,6.76884]],[[244.28693,236.83101],[-11.74484,-3.15909],[4.69536,1.26295]],[[258.44237,237.74659],[-4.81044,-0.01072],[3.09237,-0.44224]],[[267.7362,235.7096],[-2.97321,0.98174],[1.44934,-0.47857]],[[271.98837,234.01088],[-1.36199,0.68891],[1.39332,-0.70476]],[[279.38352,228.62227],[-0.9175,1.83501],[0.2507,-0.5014]],[[279.62588,223.91753],[0.04931,0.69066],[-0.54012,-7.56446]],[[270.62055,204.17094],[-0.03673,7.58309],[0.02227,-4.59705]],[[276.66314,194.68393],[-2.46252,3.19427],[2.01593,-2.61497]],[[281.6647,185.76754],[-1.28488,3.04232],[-0.01772,-0.84453]],[[281.38352,181.35834],[0.24623,0.58628],[-0.22698,-0.54045]],[[280.06321,180.19675],[0.48176,0.33395],[-3.66188,-2.53839]],[[268.17259,174.554],[4.06811,1.76118],[-2.82682,-1.2238]],[[261.73209,167.49877],[-1.47459,5.16947],[0.88845,-3.11463]],[[271.35182,160.47253],[-2.17369,2.21035],[1.22113,-1.24173]],[[274.88352,156.62226],[-0.83328,1.52928],[1.14538,-2.10206]],[[273.64326,149.77135],[1.32275,1.63561],[-3.07382,-3.80087]],[[263.44922,141.73448],[4.89283,1.44661],[-1.82891,0.29563]],[[257.95837,142.59538],[1.74384,-0.62555],[-1.56177,0.56025]],[[253.46425,144.73546],[1.65606,0.10229],[-1.58745,-0.09805]],[[249.50458,142.07322],[1.01868,1.22143],[-0.64993,-0.77928]],[[248.77834,139.11693],[0.39492,0.93472],[-1.66686,-3.94517]],[[243.02203,127.10051],[2.34038,3.62297],[-0.8166,-1.26412]],[[240.32444,123.48023],[0.89027,1.21336],[-0.29989,-0.40872]],[[239.45183,122.23465],[0.50693,0.00345],[-0.57178,-0.00388]],[[238.25774,123.46619],[0.49407,-0.28783],[-1.0366,0.60389]],[[234.9407,124.86271],[1.01527,-0.6391],[-6.75973,4.25522]],[[220.88737,144.00805],[5.43591,-5.52581],[0,0]],[[218.0064,144.51287],[1.52462,0.85153],[0,0]]],&quot;closed&quot;:true,&quot;fillColor&quot;:[0,0,0,1],&quot;strokeWidth&quot;:0.5}]}" fill="#fff700" stroke-width="0.25"/></g></g></svg>