<svg version="1.1" xmlns="http://www.w3.org/2000/svg" xmlns:xlink="http://www.w3.org/1999/xlink" width="71.16669" height="61.4999" viewBox="0,0,71.16669,61.4999"><g transform="translate(-201.42525,-145.4336)"><g data-paper-data="{&quot;isPaintingLayer&quot;:true}" fill="#032500" fill-rule="nonzero" stroke="none" stroke-width="0.25" stroke-linecap="butt" stroke-linejoin="miter" stroke-miterlimit="10" stroke-dasharray="" stroke-dashoffset="0" style="mix-blend-mode: normal"><path d="M272.59188,179.26685c0,0.91756 -0.49431,1.71966 -1.23117,2.15454l-0.01883,0.03296l-0.07157,0.01789c-0.3511,0.188 -0.75232,0.29461 -1.17843,0.29461h-0.33333l-0.20576,-0.05144l-0.57415,0.63157l-0.5,0.33333l-0.09473,0.03383l-0.04202,0.07354l-0.45715,0.11429l-0.39531,0.46119l-0.09857,0.00548l-0.04898,0.08571l-1.25,0.3125h-0.02557l-0.10185,0.02546l-0.75454,0.37727l-0.17566,0.03903l-0.04202,0.02674l-0.13259,0.13259l-0.34461,0.20676l-0.30513,0.26154l-0.17882,0.08941l-0.33647,0.39255l-0.01857,0.03714l0.00264,0.03823l-0.43504,0.47854l-0.42089,0.49104l-0.03826,0.00213l-0.42395,0.28264l-0.03868,0.06079l-0.29554,0.49257l-0.04926,0.04926l-0.03855,0.06058l-0.02754,0.00551l-0.76446,0.76446l-0.13714,0.27427l0.00264,0.03823l-0.43504,0.47854l-0.38236,0.44609l-0.2,0.4l-0.26154,0.30513l-0.20676,0.34461l-0.04646,0.04646l-0.07895,0.1579l0.00348,0.02786l-0.04528,0.05573l-0.03115,0.06231l-0.37384,0.43614l-0.2306,0.28381l-0.06223,0.28004l-0.03115,0.06231l-0.01742,0.06966l-0.02438,0.01393l-0.26038,0.52077l-0.83853,0.97828l-0.09857,0.00548l-0.04898,0.08571l-0.14248,0.03562l-0.03281,0.06152l0.0121,0.17542l-0.25562,0.28119l-0.17883,0.3353l-0.16927,0.04761l-0.26299,0.28929l-0.08397,0.05598l-0.05598,0.08397l-0.18425,0.1675l-0.12811,0.21352l-0.5,0.5l-0.21352,0.12811l-0.1675,0.18425l-0.5,0.33333l-0.14877,0.05313l-0.11994,0.10281l-0.3038,0.1519l-0.71313,0.71313l-0.21352,0.12811l-0.1675,0.18425l-1,0.66667l-0.14877,0.05313l-0.11994,0.10281l-0.3038,0.1519l-0.3798,0.3798l-0.01218,0.00731l-0.01236,0.04394l-0.54787,0.2922l-0.53244,0.31946l-0.04404,-0.01201l-0.01254,0.00669l-0.17689,0.04422l-0.01905,0.01429l-0.00051,0.00182l-0.00663,0.00353l-0.2366,0.17745l-0.45656,0.19224l-0.4371,0.23312l-0.17689,0.04422l-0.26278,0.19709l-0.20943,0.08818l-0.17253,0.14789l-0.66667,0.33333l-0.10356,0.02301l-0.086,0.06211l-0.59165,0.23666l-0.07744,0.05163l-0.15829,0.15829l-0.42292,0.25375l-0.09485,0.16598l-0.31164,0.07791l-0.27545,0.16527l-0.18443,-0.0503l-0.35443,0.08861l-0.28753,0.23002l-0.40209,0.40209l-0.01218,0.00731l-0.01236,0.04394l-0.54787,0.2922l-0.30758,0.18455l-0.01017,0.05086l-0.40002,0.25456l-0.35084,0.31895l-0.13566,-0.00936l-0.20051,0.12759l-0.56609,0.1887l-0.13466,0.08079l-0.30513,0.26154l-0.52745,0.26373l-0.3705,0.247l-0.09473,0.03383l-0.04202,0.07354l-0.54632,0.13658l-0.53033,0.1894l-0.07576,-0.03788l-0.09758,0.0244h-0.05445l-0.17254,0.09202l-0.24656,0.06164l-0.13969,0.09313l-0.31447,0.11231l-0.28172,0.17927l-0.5,0.16667l-0.15751,0.01212l-0.14277,0.06763l-0.775,0.155l-0.60895,0.15224h-0.30776l-0.29857,0.07464h-4l-0.38988,-0.09747l-0.40069,-0.03082l-0.34525,-0.11508l-0.02709,0.00739l-0.06157,-0.03694l-0.06609,-0.02203l-0.43951,-0.27969h-0.2096l-0.66667,-0.16667l-0.08649,-0.04613l-0.09774,-0.00752l-0.5,-0.16667l-0.06342,-0.04036l-0.07449,-0.01016l-0.83333,-0.33333l-0.212,-0.15311l-0.24627,-0.08795l-0.3705,-0.247l-0.282,-0.141l-0.40043,-0.10011l-0.34497,-0.18398l-0.17542,0.0121l-0.28119,-0.25562l-0.3353,-0.17883l-0.00616,-0.0219l-0.33743,-0.14671l-0.36456,-0.08101l-1,-0.5l-0.11994,-0.10281l-0.14877,-0.05313l-0.37019,-0.24679h-0.07639l-0.09758,-0.0244l-0.07576,0.03788l-0.53033,-0.1894l-0.54632,-0.13658l-0.04202,-0.07354l-0.09473,-0.03383l-0.3705,-0.247l-0.86079,-0.43039l-0.28661,-0.24567l-0.4657,-0.16632l-0.54632,-0.13658l-0.04202,-0.07354l-0.09473,-0.03383l-0.3705,-0.247l-1.61533,-0.80766l-1.0671,-0.26677l-0.01254,-0.00669l-0.04404,0.01201l-0.53244,-0.31946l-0.54787,-0.2922l-0.01236,-0.04394l-0.01218,-0.00731l-0.15829,-0.15829l-0.66452,-0.44302l-0.52745,-0.26373l-0.30513,-0.26154l-0.34461,-0.20676l-0.01503,-0.01503l-0.01061,0.00073l-0.47854,-0.43504l-0.44609,-0.38236l-0.03714,-0.01857l-0.03823,0.00264l-0.47854,-0.43504l-0.49104,-0.42089l-0.00213,-0.03826l-0.07748,-0.11622l-0.32408,-0.24306l-0.54167,-0.66667l-0.14583,-0.08333l-0.03472,-0.13889l-0.09028,-0.11111l0.02083,-0.16667l-0.16921,-0.67685l-0.3021,-0.25894l-0.00548,-0.09857l-0.08571,-0.04898l-0.3125,-1.25v-7.02557l-0.09202,-0.36809v-0.30776l-0.07464,-0.29857v-0.26097l-0.03837,-0.11512l-0.00982,-0.12763l-0.13931,-0.0796l-0.07791,-0.31164l-0.16527,-0.27545l0.0503,-0.18443l-0.11962,-0.47848v-0.22112l-0.09202,-0.17254l-0.16667,-0.66667v-0.30776l-0.04687,-0.18746l-0.04861,-0.02778l-0.13658,-0.54632l-0.1894,-0.53033l0.03788,-0.07576l-0.0244,-0.09758v-0.11111l-0.16667,-0.22222l-0.07921,-0.18812l-0.10829,-0.06188l-0.12019,-0.48077l-0.19231,-0.45673l0.0495,-0.11448l-0.0495,-0.19802v-0.44444l-0.16667,-0.22222l-0.07921,-0.18812l-0.10829,-0.06188l-0.12019,-0.48077l-0.19231,-0.45673l0.0495,-0.11448l-0.0495,-0.19802v-0.19224l-0.02033,-0.08132l-0.22646,-0.33969l-0.03383,-0.09473l-0.07354,-0.04202l-0.13658,-0.54632l-0.1894,-0.53033l0.03788,-0.07576l-0.0244,-0.09758v-0.24306l-0.24679,-0.37019l-0.03383,-0.09473l-0.07354,-0.04202l-0.13658,-0.54632l-0.1894,-0.53033l0.03788,-0.07576l-0.0244,-0.09758v-0.42764l-0.03837,-0.11512l-0.00752,-0.09774l-0.04613,-0.08649l-0.06164,-0.24656l-0.09313,-0.13969l-0.03383,-0.09473l-0.07354,-0.04202l-0.13658,-0.54632l-0.1894,-0.53033l0.03788,-0.07576l-0.0244,-0.09758v-0.14913l-0.03837,-0.0603l-0.33333,-1l-0.03082,-0.40069l-0.09747,-0.38988v-0.83333l0.07464,-0.29857v-0.30776l0.09202,-0.36809v-0.19224l0.11962,-0.47848l-0.0503,-0.18443l0.16527,-0.27545l0.07791,-0.31164l0.02083,-0.0119v-0.24164l-0.01558,-0.02336l0.01558,-0.07009v-0.06966l0.13932,-0.55728l0.02735,-0.12306v-0.15654l-0.01558,-0.02336l0.01558,-0.07009v-0.06966l0.13932,-0.55728l0.02735,-0.12306v-0.65299l0.3125,-1.25l0.08571,-0.04898l0.00548,-0.09857l0.13285,-0.11387l0.06073,-0.27329l0.03115,-0.06231l0.01742,-0.06966l0.02438,-0.01393l0.01426,-0.02852l0.11048,-0.33145l0.17927,-0.28172l0.11231,-0.31447l0.33333,-0.5l0.18425,-0.1675l0.12811,-0.21352l0.15829,-0.15829l0.52935,-0.79403l0.18425,-0.1675l0.12811,-0.21352l0.15829,-0.15829l0.51104,-0.76656l0.00213,-0.03826l0.49104,-0.42089l0.08925,-0.08114l0.10256,-0.15385l0.18425,-0.1675l0.12811,-0.21352l0.15829,-0.15829l0.19602,-0.29403l0.28498,-0.25907l0.23341,-0.30635l0.72521,-0.58017l2.20135,-2.20135l0.19493,-0.30631l0.0106,-0.19087l0.24389,-0.20905l0.17246,-0.27101l0.17226,-0.03445l0.09424,-0.14136l0.11148,-0.10134l0.06591,-0.29661l0.03115,-0.06231l0.01742,-0.06966l0.02438,-0.01393l0.26038,-0.52077l0.83853,-0.97828l0.09857,-0.00548l0.04898,-0.08571l0.00762,-0.0019l0.03144,-0.15722l0.27101,-0.17246l0.20905,-0.24389l0.19087,-0.0106l0.4161,-0.26479l0.31404,-0.10468l0.24565,-0.28659l0.09857,-0.00548l0.04898,-0.08571l1.25,-0.3125h5.16667l0.29857,0.07464h0.30776l0.36809,0.09202h0.52912l0.02336,-0.01558l0.07009,0.01558h0.06966l0.55728,0.13932l0.56075,0.12461l0.06231,0.03115l0.06966,0.01742l0.01393,0.02438l0.32624,0.16312h0.24316l0.24157,0.06039l0.24872,-0.01184l0.7938,0.15876l0.96024,0.16004l0.34248,0.1489l0.36456,0.08101l0.13333,0.06667l0.01231,0.00273h0.06966l0.55728,0.13932l0.56075,0.12461l0.06231,0.03115l0.06966,0.01742l0.01393,0.02438l0.52077,0.26038l0.30513,0.26154l0.00966,0.00579l0.17352,0.04338l0.08649,0.04613l0.09774,0.00752l0.5,0.16667l0.28172,0.17927l0.07215,0.02577h0.02223l0.47848,0.11962l0.18443,-0.0503l0.27545,0.16527l0.31164,0.07791l0.09485,0.16598l0.42292,0.25375l0.04646,0.04646l0.05834,0.02917l1.0671,0.26677l0.24293,0.12956l0.26876,0.05973l0.66667,0.33333l0.11994,0.10281l0.14877,0.05313l0.61682,0.41121l0.4478,0.09951l0.06231,0.03115l0.06966,0.01742l0.01393,0.02438l0.15791,0.07895l0.03823,-0.00264l0.47854,0.43504l0.20462,0.17539l0.15926,0.05309l0.02709,-0.00739l0.06157,0.03694l0.06609,0.02203l0.48463,0.3084l0.49257,0.29554l0.04926,0.04926l0.06058,0.03855l0.00551,0.02754l0.00495,0.00495l0.06918,0.05929l0.20943,0.08818l0.25,0.1875l0.5,0.125l0.04202,0.07354l0.09473,0.03383l0.8705,0.58033l0.52745,0.26373l0.30513,0.26154l0.34461,0.20676l0.01503,0.01503l0.01061,-0.00073l0.44234,0.40213l0.37059,0.09265l0.34497,0.18398l0.17542,-0.0121l0.28119,0.25562l0.3353,0.17883l0.04761,0.16927l0.28929,0.26299l0.0484,0.07259l0.48951,0.24476l0.20193,0.17308l0.24177,0.11081l0.74862,0.59889l0.69314,0.4621l0.59165,0.23666l0.26746,0.19316l0.30406,0.12803l0.66667,0.5l0.11347,0.13965l0.1543,0.09258l0.54104,0.54104l0.46902,0.35176l0.31276,0.20851l0.52745,0.26373l0.51345,0.4401l0.18753,0.05274l0.1061,0.19895l0.17119,0.14674l0.01081,0.19451l0.18735,0.35129l0.13996,0.08398l1.66667,1.66667l0.20676,0.34461l0.20706,0.24157l0.10898,0.09341l0.20943,0.08818l0.66667,0.5l0.17593,0.21653l0.14308,0.04024l0.21089,0.39542l0.28259,0.34781l-0.01726,0.1381l0.0381,0.02857l0.11347,0.13965l0.1543,0.09258l0.66667,0.66667l0.07243,0.12071l0.11198,0.08532l0.58017,0.72521l0.47085,0.47085l0.72521,0.58017l0.01558,0.02044l0.02315,0.01117l1,0.83333l0.13515,0.18494l0.18494,0.13515l0.67169,0.80602l0.55145,0.44116l0.90973,0.60649l0.07442,0.08186l0.10057,0.04609l0.83333,0.66667l0.19217,0.25222l0.24609,0.19995l0.0363,0.0484l0.17381,0.0927l0.45656,0.19224l0.2366,0.17745l0.00663,0.00353l0.00051,0.00182l0.42293,0.3172l0.11347,0.13965l0.1543,0.09258l0.15829,0.15829l0.29403,0.19602l0.28473,0.31321l0.32852,0.26692l0.0363,0.0484l0.08168,0.04356l0.17542,-0.0121l0.28119,0.25562l0.3353,0.17883l0.03491,0.12414l0.41721,0.25033l0.54787,0.2922l0.01236,0.04394l0.01218,0.00731l0.13259,0.13259l0.04202,0.02674l0.17566,0.03903l0.33333,0.16667l0.11994,0.10281l0.14877,0.05313l0.02435,0.01623l0.8389,0.20972l0.04898,0.08571l0.09857,0.00548l0.12258,0.14301l0.39654,0.09914l0.14739,0.25793c0.03868,0.01822 0.07681,0.0374 0.11438,0.05751l0.07157,0.01789l0.01883,0.03296c0.73685,0.43488 1.23117,1.23698 1.23117,2.15454z"/></g></g></svg>